<?xml version="1.0" encoding="utf-8" standalone="no"?>
<!DOCTYPE svg PUBLIC "-//W3C//DTD SVG 1.1//EN"
  "http://www.w3.org/Graphics/SVG/1.1/DTD/svg11.dtd">
<svg xmlns:xlink="http://www.w3.org/1999/xlink" width="1332pt" height="707.04pt" viewBox="0 0 1332 707.04" xmlns="http://www.w3.org/2000/svg" version="1.1">
 <metadata>
  <rdf:RDF xmlns:dc="http://purl.org/dc/elements/1.1/" xmlns:cc="http://creativecommons.org/ns#" xmlns:rdf="http://www.w3.org/1999/02/22-rdf-syntax-ns#">
   <cc:Work>
    <dc:type rdf:resource="http://purl.org/dc/dcmitype/StillImage"/>
    <dc:date>2024-03-12T13:01:13.323611</dc:date>
    <dc:format>image/svg+xml</dc:format>
    <dc:creator>
     <cc:Agent>
      <dc:title>Matplotlib v3.8.3, https://matplotlib.org/</dc:title>
     </cc:Agent>
    </dc:creator>
   </cc:Work>
  </rdf:RDF>
 </metadata>
 <defs>
  <style type="text/css">*{stroke-linejoin: round; stroke-linecap: butt}</style>
 </defs>
 <g id="figure_1">
  <g id="patch_1">
   <path d="M 0 707.04 
L 1332 707.04 
L 1332 0 
L 0 0 
z
" style="fill: #ffffff"/>
  </g>
  <g id="axes_1">
   <g id="patch_2">
    <path d="M 166.5 629.2656 
L 1198.8 629.2656 
L 1198.8 84.8448 
L 166.5 84.8448 
z
" style="fill: #ffffff"/>
   </g>
   <g id="patch_3">
    <path d="M 217.332955 629.2656 
L 248.614773 629.2656 
L 248.614773 535.72028 
L 217.332955 535.72028 
z
" clip-path="url(#pca7066aa2b)" style="fill: #1f77b4"/>
   </g>
   <g id="patch_4">
    <path d="M 256.435227 629.2656 
L 287.717045 629.2656 
L 287.717045 535.72028 
L 256.435227 535.72028 
z
" clip-path="url(#pca7066aa2b)" style="fill: #1f77b4"/>
   </g>
   <g id="patch_5">
    <path d="M 295.5375 629.2656 
L 326.819318 629.2656 
L 326.819318 535.72028 
L 295.5375 535.72028 
z
" clip-path="url(#pca7066aa2b)" style="fill: #1f77b4"/>
   </g>
   <g id="patch_6">
    <path d="M 334.639773 629.2656 
L 365.921591 629.2656 
L 365.921591 535.72028 
L 334.639773 535.72028 
z
" clip-path="url(#pca7066aa2b)" style="fill: #1f77b4"/>
   </g>
   <g id="patch_7">
    <path d="M 373.742045 629.2656 
L 405.023864 629.2656 
L 405.023864 535.72028 
L 373.742045 535.72028 
z
" clip-path="url(#pca7066aa2b)" style="fill: #1f77b4"/>
   </g>
   <g id="patch_8">
    <path d="M 412.844318 629.2656 
L 444.126136 629.2656 
L 444.126136 535.72028 
L 412.844318 535.72028 
z
" clip-path="url(#pca7066aa2b)" style="fill: #1f77b4"/>
   </g>
   <g id="patch_9">
    <path d="M 451.946591 629.2656 
L 483.228409 629.2656 
L 483.228409 535.72028 
L 451.946591 535.72028 
z
" clip-path="url(#pca7066aa2b)" style="fill: #1f77b4"/>
   </g>
   <g id="patch_10">
    <path d="M 491.048864 629.2656 
L 522.330682 629.2656 
L 522.330682 535.72028 
L 491.048864 535.72028 
z
" clip-path="url(#pca7066aa2b)" style="fill: #1f77b4"/>
   </g>
   <g id="patch_11">
    <path d="M 530.151136 629.2656 
L 561.432955 629.2656 
L 561.432955 535.72028 
L 530.151136 535.72028 
z
" clip-path="url(#pca7066aa2b)" style="fill: #1f77b4"/>
   </g>
   <g id="patch_12">
    <path d="M 569.253409 629.2656 
L 600.535227 629.2656 
L 600.535227 535.72028 
L 569.253409 535.72028 
z
" clip-path="url(#pca7066aa2b)" style="fill: #1f77b4"/>
   </g>
   <g id="patch_13">
    <path d="M 608.355682 629.2656 
L 639.6375 629.2656 
L 639.6375 496.83308 
L 608.355682 496.83308 
z
" clip-path="url(#pca7066aa2b)" style="fill: #1f77b4"/>
   </g>
   <g id="patch_14">
    <path d="M 647.457955 629.2656 
L 678.739773 629.2656 
L 678.739773 496.83308 
L 647.457955 496.83308 
z
" clip-path="url(#pca7066aa2b)" style="fill: #1f77b4"/>
   </g>
   <g id="patch_15">
    <path d="M 686.560227 629.2656 
L 717.842045 629.2656 
L 717.842045 496.83308 
L 686.560227 496.83308 
z
" clip-path="url(#pca7066aa2b)" style="fill: #1f77b4"/>
   </g>
   <g id="patch_16">
    <path d="M 725.6625 629.2656 
L 756.944318 629.2656 
L 756.944318 496.83308 
L 725.6625 496.83308 
z
" clip-path="url(#pca7066aa2b)" style="fill: #1f77b4"/>
   </g>
   <g id="patch_17">
    <path d="M 764.764773 629.2656 
L 796.046591 629.2656 
L 796.046591 496.83308 
L 764.764773 496.83308 
z
" clip-path="url(#pca7066aa2b)" style="fill: #1f77b4"/>
   </g>
   <g id="patch_18">
    <path d="M 803.867045 629.2656 
L 835.148864 629.2656 
L 835.148864 244.06628 
L 803.867045 244.06628 
z
" clip-path="url(#pca7066aa2b)" style="fill: #1f77b4"/>
   </g>
   <g id="patch_19">
    <path d="M 842.969318 629.2656 
L 874.251136 629.2656 
L 874.251136 205.17908 
L 842.969318 205.17908 
z
" clip-path="url(#pca7066aa2b)" style="fill: #1f77b4"/>
   </g>
   <g id="patch_20">
    <path d="M 882.071591 629.2656 
L 913.353409 629.2656 
L 913.353409 205.17908 
L 882.071591 205.17908 
z
" clip-path="url(#pca7066aa2b)" style="fill: #1f77b4"/>
   </g>
   <g id="patch_21">
    <path d="M 921.173864 629.2656 
L 952.455682 629.2656 
L 952.455682 184.43924 
L 921.173864 184.43924 
z
" clip-path="url(#pca7066aa2b)" style="fill: #1f77b4"/>
   </g>
   <g id="patch_22">
    <path d="M 960.276136 629.2656 
L 991.557955 629.2656 
L 991.557955 437.20604 
L 960.276136 437.20604 
z
" clip-path="url(#pca7066aa2b)" style="fill: #1f77b4"/>
   </g>
   <g id="patch_23">
    <path d="M 999.378409 629.2656 
L 1030.660227 629.2656 
L 1030.660227 514.98044 
L 999.378409 514.98044 
z
" clip-path="url(#pca7066aa2b)" style="fill: #1f77b4"/>
   </g>
   <g id="patch_24">
    <path d="M 1038.480682 629.2656 
L 1069.7625 629.2656 
L 1069.7625 514.98044 
L 1038.480682 514.98044 
z
" clip-path="url(#pca7066aa2b)" style="fill: #1f77b4"/>
   </g>
   <g id="patch_25">
    <path d="M 1077.582955 629.2656 
L 1108.864773 629.2656 
L 1108.864773 514.98044 
L 1077.582955 514.98044 
z
" clip-path="url(#pca7066aa2b)" style="fill: #1f77b4"/>
   </g>
   <g id="patch_26">
    <path d="M 1116.685227 629.2656 
L 1147.967045 629.2656 
L 1147.967045 535.72028 
L 1116.685227 535.72028 
z
" clip-path="url(#pca7066aa2b)" style="fill: #1f77b4"/>
   </g>
   <g id="patch_27">
    <path d="M 217.332955 535.72028 
L 248.614773 535.72028 
L 248.614773 535.72028 
L 217.332955 535.72028 
z
" clip-path="url(#pca7066aa2b)" style="fill: #ff7f0e"/>
   </g>
   <g id="patch_28">
    <path d="M 256.435227 535.72028 
L 287.717045 535.72028 
L 287.717045 535.72028 
L 256.435227 535.72028 
z
" clip-path="url(#pca7066aa2b)" style="fill: #ff7f0e"/>
   </g>
   <g id="patch_29">
    <path d="M 295.5375 535.72028 
L 326.819318 535.72028 
L 326.819318 535.72028 
L 295.5375 535.72028 
z
" clip-path="url(#pca7066aa2b)" style="fill: #ff7f0e"/>
   </g>
   <g id="patch_30">
    <path d="M 334.639773 535.72028 
L 365.921591 535.72028 
L 365.921591 535.72028 
L 334.639773 535.72028 
z
" clip-path="url(#pca7066aa2b)" style="fill: #ff7f0e"/>
   </g>
   <g id="patch_31">
    <path d="M 373.742045 535.72028 
L 405.023864 535.72028 
L 405.023864 535.72028 
L 373.742045 535.72028 
z
" clip-path="url(#pca7066aa2b)" style="fill: #ff7f0e"/>
   </g>
   <g id="patch_32">
    <path d="M 412.844318 535.72028 
L 444.126136 535.72028 
L 444.126136 535.72028 
L 412.844318 535.72028 
z
" clip-path="url(#pca7066aa2b)" style="fill: #ff7f0e"/>
   </g>
   <g id="patch_33">
    <path d="M 451.946591 535.72028 
L 483.228409 535.72028 
L 483.228409 535.72028 
L 451.946591 535.72028 
z
" clip-path="url(#pca7066aa2b)" style="fill: #ff7f0e"/>
   </g>
   <g id="patch_34">
    <path d="M 491.048864 535.72028 
L 522.330682 535.72028 
L 522.330682 470.90828 
L 491.048864 470.90828 
z
" clip-path="url(#pca7066aa2b)" style="fill: #ff7f0e"/>
   </g>
   <g id="patch_35">
    <path d="M 530.151136 535.72028 
L 561.432955 535.72028 
L 561.432955 535.72028 
L 530.151136 535.72028 
z
" clip-path="url(#pca7066aa2b)" style="fill: #ff7f0e"/>
   </g>
   <g id="patch_36">
    <path d="M 569.253409 535.72028 
L 600.535227 535.72028 
L 600.535227 535.72028 
L 569.253409 535.72028 
z
" clip-path="url(#pca7066aa2b)" style="fill: #ff7f0e"/>
   </g>
   <g id="patch_37">
    <path d="M 608.355682 496.83308 
L 639.6375 496.83308 
L 639.6375 110.7696 
L 608.355682 110.7696 
z
" clip-path="url(#pca7066aa2b)" style="fill: #ff7f0e"/>
   </g>
   <g id="patch_38">
    <path d="M 647.457955 496.83308 
L 678.739773 496.83308 
L 678.739773 496.83308 
L 647.457955 496.83308 
z
" clip-path="url(#pca7066aa2b)" style="fill: #ff7f0e"/>
   </g>
   <g id="patch_39">
    <path d="M 686.560227 496.83308 
L 717.842045 496.83308 
L 717.842045 496.83308 
L 686.560227 496.83308 
z
" clip-path="url(#pca7066aa2b)" style="fill: #ff7f0e"/>
   </g>
   <g id="patch_40">
    <path d="M 725.6625 496.83308 
L 756.944318 496.83308 
L 756.944318 110.7696 
L 725.6625 110.7696 
z
" clip-path="url(#pca7066aa2b)" style="fill: #ff7f0e"/>
   </g>
   <g id="patch_41">
    <path d="M 764.764773 496.83308 
L 796.046591 496.83308 
L 796.046591 496.83308 
L 764.764773 496.83308 
z
" clip-path="url(#pca7066aa2b)" style="fill: #ff7f0e"/>
   </g>
   <g id="patch_42">
    <path d="M 803.867045 244.06628 
L 835.148864 244.06628 
L 835.148864 110.7696 
L 803.867045 110.7696 
z
" clip-path="url(#pca7066aa2b)" style="fill: #ff7f0e"/>
   </g>
   <g id="patch_43">
    <path d="M 842.969318 205.17908 
L 874.251136 205.17908 
L 874.251136 205.17908 
L 842.969318 205.17908 
z
" clip-path="url(#pca7066aa2b)" style="fill: #ff7f0e"/>
   </g>
   <g id="patch_44">
    <path d="M 882.071591 205.17908 
L 913.353409 205.17908 
L 913.353409 205.17908 
L 882.071591 205.17908 
z
" clip-path="url(#pca7066aa2b)" style="fill: #ff7f0e"/>
   </g>
   <g id="patch_45">
    <path d="M 921.173864 184.43924 
L 952.455682 184.43924 
L 952.455682 184.43924 
L 921.173864 184.43924 
z
" clip-path="url(#pca7066aa2b)" style="fill: #ff7f0e"/>
   </g>
   <g id="patch_46">
    <path d="M 960.276136 437.20604 
L 991.557955 437.20604 
L 991.557955 437.20604 
L 960.276136 437.20604 
z
" clip-path="url(#pca7066aa2b)" style="fill: #ff7f0e"/>
   </g>
   <g id="patch_47">
    <path d="M 999.378409 514.98044 
L 1030.660227 514.98044 
L 1030.660227 209.49988 
L 999.378409 209.49988 
z
" clip-path="url(#pca7066aa2b)" style="fill: #ff7f0e"/>
   </g>
   <g id="patch_48">
    <path d="M 1038.480682 514.98044 
L 1069.7625 514.98044 
L 1069.7625 110.7696 
L 1038.480682 110.7696 
z
" clip-path="url(#pca7066aa2b)" style="fill: #ff7f0e"/>
   </g>
   <g id="patch_49">
    <path d="M 1077.582955 514.98044 
L 1108.864773 514.98044 
L 1108.864773 514.98044 
L 1077.582955 514.98044 
z
" clip-path="url(#pca7066aa2b)" style="fill: #ff7f0e"/>
   </g>
   <g id="patch_50">
    <path d="M 1116.685227 535.72028 
L 1147.967045 535.72028 
L 1147.967045 411.28124 
L 1116.685227 411.28124 
z
" clip-path="url(#pca7066aa2b)" style="fill: #ff7f0e"/>
   </g>
   <g id="matplotlib.axis_1">
    <g id="xtick_1">
     <g id="line2d_1">
      <defs>
       <path id="md0ec87b977" d="M 0 0 
L 0 3.5 
" style="stroke: #000000; stroke-width: 0.8"/>
      </defs>
      <g>
       <use xlink:href="#md0ec87b977" x="213.422727" y="629.2656" style="stroke: #000000; stroke-width: 0.8"/>
      </g>
     </g>
     <g id="text_1">
      <!-- 0 -->
      <g transform="translate(210.241477 643.864037) scale(0.1 -0.1)">
       <defs>
        <path id="DejaVuSans-30" d="M 2034 4250 
Q 1547 4250 1301 3770 
Q 1056 3291 1056 2328 
Q 1056 1369 1301 889 
Q 1547 409 2034 409 
Q 2525 409 2770 889 
Q 3016 1369 3016 2328 
Q 3016 3291 2770 3770 
Q 2525 4250 2034 4250 
z
M 2034 4750 
Q 2819 4750 3233 4129 
Q 3647 3509 3647 2328 
Q 3647 1150 3233 529 
Q 2819 -91 2034 -91 
Q 1250 -91 836 529 
Q 422 1150 422 2328 
Q 422 3509 836 4129 
Q 1250 4750 2034 4750 
z
" transform="scale(0.015625)"/>
       </defs>
       <use xlink:href="#DejaVuSans-30"/>
      </g>
     </g>
    </g>
    <g id="xtick_2">
     <g id="line2d_2">
      <g>
       <use xlink:href="#md0ec87b977" x="291.627273" y="629.2656" style="stroke: #000000; stroke-width: 0.8"/>
      </g>
     </g>
     <g id="text_2">
      <!-- 2 -->
      <g transform="translate(288.446023 643.864037) scale(0.1 -0.1)">
       <defs>
        <path id="DejaVuSans-32" d="M 1228 531 
L 3431 531 
L 3431 0 
L 469 0 
L 469 531 
Q 828 903 1448 1529 
Q 2069 2156 2228 2338 
Q 2531 2678 2651 2914 
Q 2772 3150 2772 3378 
Q 2772 3750 2511 3984 
Q 2250 4219 1831 4219 
Q 1534 4219 1204 4116 
Q 875 4013 500 3803 
L 500 4441 
Q 881 4594 1212 4672 
Q 1544 4750 1819 4750 
Q 2544 4750 2975 4387 
Q 3406 4025 3406 3419 
Q 3406 3131 3298 2873 
Q 3191 2616 2906 2266 
Q 2828 2175 2409 1742 
Q 1991 1309 1228 531 
z
" transform="scale(0.015625)"/>
       </defs>
       <use xlink:href="#DejaVuSans-32"/>
      </g>
     </g>
    </g>
    <g id="xtick_3">
     <g id="line2d_3">
      <g>
       <use xlink:href="#md0ec87b977" x="369.831818" y="629.2656" style="stroke: #000000; stroke-width: 0.8"/>
      </g>
     </g>
     <g id="text_3">
      <!-- 4 -->
      <g transform="translate(366.650568 643.864037) scale(0.1 -0.1)">
       <defs>
        <path id="DejaVuSans-34" d="M 2419 4116 
L 825 1625 
L 2419 1625 
L 2419 4116 
z
M 2253 4666 
L 3047 4666 
L 3047 1625 
L 3713 1625 
L 3713 1100 
L 3047 1100 
L 3047 0 
L 2419 0 
L 2419 1100 
L 313 1100 
L 313 1709 
L 2253 4666 
z
" transform="scale(0.015625)"/>
       </defs>
       <use xlink:href="#DejaVuSans-34"/>
      </g>
     </g>
    </g>
    <g id="xtick_4">
     <g id="line2d_4">
      <g>
       <use xlink:href="#md0ec87b977" x="448.036364" y="629.2656" style="stroke: #000000; stroke-width: 0.8"/>
      </g>
     </g>
     <g id="text_4">
      <!-- 6 -->
      <g transform="translate(444.855114 643.864037) scale(0.1 -0.1)">
       <defs>
        <path id="DejaVuSans-36" d="M 2113 2584 
Q 1688 2584 1439 2293 
Q 1191 2003 1191 1497 
Q 1191 994 1439 701 
Q 1688 409 2113 409 
Q 2538 409 2786 701 
Q 3034 994 3034 1497 
Q 3034 2003 2786 2293 
Q 2538 2584 2113 2584 
z
M 3366 4563 
L 3366 3988 
Q 3128 4100 2886 4159 
Q 2644 4219 2406 4219 
Q 1781 4219 1451 3797 
Q 1122 3375 1075 2522 
Q 1259 2794 1537 2939 
Q 1816 3084 2150 3084 
Q 2853 3084 3261 2657 
Q 3669 2231 3669 1497 
Q 3669 778 3244 343 
Q 2819 -91 2113 -91 
Q 1303 -91 875 529 
Q 447 1150 447 2328 
Q 447 3434 972 4092 
Q 1497 4750 2381 4750 
Q 2619 4750 2861 4703 
Q 3103 4656 3366 4563 
z
" transform="scale(0.015625)"/>
       </defs>
       <use xlink:href="#DejaVuSans-36"/>
      </g>
     </g>
    </g>
    <g id="xtick_5">
     <g id="line2d_5">
      <g>
       <use xlink:href="#md0ec87b977" x="526.240909" y="629.2656" style="stroke: #000000; stroke-width: 0.8"/>
      </g>
     </g>
     <g id="text_5">
      <!-- 8 -->
      <g transform="translate(523.059659 643.864037) scale(0.1 -0.1)">
       <defs>
        <path id="DejaVuSans-38" d="M 2034 2216 
Q 1584 2216 1326 1975 
Q 1069 1734 1069 1313 
Q 1069 891 1326 650 
Q 1584 409 2034 409 
Q 2484 409 2743 651 
Q 3003 894 3003 1313 
Q 3003 1734 2745 1975 
Q 2488 2216 2034 2216 
z
M 1403 2484 
Q 997 2584 770 2862 
Q 544 3141 544 3541 
Q 544 4100 942 4425 
Q 1341 4750 2034 4750 
Q 2731 4750 3128 4425 
Q 3525 4100 3525 3541 
Q 3525 3141 3298 2862 
Q 3072 2584 2669 2484 
Q 3125 2378 3379 2068 
Q 3634 1759 3634 1313 
Q 3634 634 3220 271 
Q 2806 -91 2034 -91 
Q 1263 -91 848 271 
Q 434 634 434 1313 
Q 434 1759 690 2068 
Q 947 2378 1403 2484 
z
M 1172 3481 
Q 1172 3119 1398 2916 
Q 1625 2713 2034 2713 
Q 2441 2713 2670 2916 
Q 2900 3119 2900 3481 
Q 2900 3844 2670 4047 
Q 2441 4250 2034 4250 
Q 1625 4250 1398 4047 
Q 1172 3844 1172 3481 
z
" transform="scale(0.015625)"/>
       </defs>
       <use xlink:href="#DejaVuSans-38"/>
      </g>
     </g>
    </g>
    <g id="xtick_6">
     <g id="line2d_6">
      <g>
       <use xlink:href="#md0ec87b977" x="604.445455" y="629.2656" style="stroke: #000000; stroke-width: 0.8"/>
      </g>
     </g>
     <g id="text_6">
      <!-- 10 -->
      <g transform="translate(598.082955 643.864037) scale(0.1 -0.1)">
       <defs>
        <path id="DejaVuSans-31" d="M 794 531 
L 1825 531 
L 1825 4091 
L 703 3866 
L 703 4441 
L 1819 4666 
L 2450 4666 
L 2450 531 
L 3481 531 
L 3481 0 
L 794 0 
L 794 531 
z
" transform="scale(0.015625)"/>
       </defs>
       <use xlink:href="#DejaVuSans-31"/>
       <use xlink:href="#DejaVuSans-30" x="63.623047"/>
      </g>
     </g>
    </g>
    <g id="xtick_7">
     <g id="line2d_7">
      <g>
       <use xlink:href="#md0ec87b977" x="682.65" y="629.2656" style="stroke: #000000; stroke-width: 0.8"/>
      </g>
     </g>
     <g id="text_7">
      <!-- 12 -->
      <g transform="translate(676.2875 643.864037) scale(0.1 -0.1)">
       <use xlink:href="#DejaVuSans-31"/>
       <use xlink:href="#DejaVuSans-32" x="63.623047"/>
      </g>
     </g>
    </g>
    <g id="xtick_8">
     <g id="line2d_8">
      <g>
       <use xlink:href="#md0ec87b977" x="760.854545" y="629.2656" style="stroke: #000000; stroke-width: 0.8"/>
      </g>
     </g>
     <g id="text_8">
      <!-- 14 -->
      <g transform="translate(754.492045 643.864037) scale(0.1 -0.1)">
       <use xlink:href="#DejaVuSans-31"/>
       <use xlink:href="#DejaVuSans-34" x="63.623047"/>
      </g>
     </g>
    </g>
    <g id="xtick_9">
     <g id="line2d_9">
      <g>
       <use xlink:href="#md0ec87b977" x="839.059091" y="629.2656" style="stroke: #000000; stroke-width: 0.8"/>
      </g>
     </g>
     <g id="text_9">
      <!-- 16 -->
      <g transform="translate(832.696591 643.864037) scale(0.1 -0.1)">
       <use xlink:href="#DejaVuSans-31"/>
       <use xlink:href="#DejaVuSans-36" x="63.623047"/>
      </g>
     </g>
    </g>
    <g id="xtick_10">
     <g id="line2d_10">
      <g>
       <use xlink:href="#md0ec87b977" x="917.263636" y="629.2656" style="stroke: #000000; stroke-width: 0.8"/>
      </g>
     </g>
     <g id="text_10">
      <!-- 18 -->
      <g transform="translate(910.901136 643.864037) scale(0.1 -0.1)">
       <use xlink:href="#DejaVuSans-31"/>
       <use xlink:href="#DejaVuSans-38" x="63.623047"/>
      </g>
     </g>
    </g>
    <g id="xtick_11">
     <g id="line2d_11">
      <g>
       <use xlink:href="#md0ec87b977" x="995.468182" y="629.2656" style="stroke: #000000; stroke-width: 0.8"/>
      </g>
     </g>
     <g id="text_11">
      <!-- 20 -->
      <g transform="translate(989.105682 643.864037) scale(0.1 -0.1)">
       <use xlink:href="#DejaVuSans-32"/>
       <use xlink:href="#DejaVuSans-30" x="63.623047"/>
      </g>
     </g>
    </g>
    <g id="xtick_12">
     <g id="line2d_12">
      <g>
       <use xlink:href="#md0ec87b977" x="1073.672727" y="629.2656" style="stroke: #000000; stroke-width: 0.8"/>
      </g>
     </g>
     <g id="text_12">
      <!-- 22 -->
      <g transform="translate(1067.310227 643.864037) scale(0.1 -0.1)">
       <use xlink:href="#DejaVuSans-32"/>
       <use xlink:href="#DejaVuSans-32" x="63.623047"/>
      </g>
     </g>
    </g>
    <g id="xtick_13">
     <g id="line2d_13">
      <g>
       <use xlink:href="#md0ec87b977" x="1151.877273" y="629.2656" style="stroke: #000000; stroke-width: 0.8"/>
      </g>
     </g>
     <g id="text_13">
      <!-- 24 -->
      <g transform="translate(1145.514773 643.864037) scale(0.1 -0.1)">
       <use xlink:href="#DejaVuSans-32"/>
       <use xlink:href="#DejaVuSans-34" x="63.623047"/>
      </g>
     </g>
    </g>
    <g id="text_14">
     <!-- Time [h] -->
     <g transform="translate(661.757031 657.542163) scale(0.1 -0.1)">
      <defs>
       <path id="DejaVuSans-54" d="M -19 4666 
L 3928 4666 
L 3928 4134 
L 2272 4134 
L 2272 0 
L 1638 0 
L 1638 4134 
L -19 4134 
L -19 4666 
z
" transform="scale(0.015625)"/>
       <path id="DejaVuSans-69" d="M 603 3500 
L 1178 3500 
L 1178 0 
L 603 0 
L 603 3500 
z
M 603 4863 
L 1178 4863 
L 1178 4134 
L 603 4134 
L 603 4863 
z
" transform="scale(0.015625)"/>
       <path id="DejaVuSans-6d" d="M 3328 2828 
Q 3544 3216 3844 3400 
Q 4144 3584 4550 3584 
Q 5097 3584 5394 3201 
Q 5691 2819 5691 2113 
L 5691 0 
L 5113 0 
L 5113 2094 
Q 5113 2597 4934 2840 
Q 4756 3084 4391 3084 
Q 3944 3084 3684 2787 
Q 3425 2491 3425 1978 
L 3425 0 
L 2847 0 
L 2847 2094 
Q 2847 2600 2669 2842 
Q 2491 3084 2119 3084 
Q 1678 3084 1418 2786 
Q 1159 2488 1159 1978 
L 1159 0 
L 581 0 
L 581 3500 
L 1159 3500 
L 1159 2956 
Q 1356 3278 1631 3431 
Q 1906 3584 2284 3584 
Q 2666 3584 2933 3390 
Q 3200 3197 3328 2828 
z
" transform="scale(0.015625)"/>
       <path id="DejaVuSans-65" d="M 3597 1894 
L 3597 1613 
L 953 1613 
Q 991 1019 1311 708 
Q 1631 397 2203 397 
Q 2534 397 2845 478 
Q 3156 559 3463 722 
L 3463 178 
Q 3153 47 2828 -22 
Q 2503 -91 2169 -91 
Q 1331 -91 842 396 
Q 353 884 353 1716 
Q 353 2575 817 3079 
Q 1281 3584 2069 3584 
Q 2775 3584 3186 3129 
Q 3597 2675 3597 1894 
z
M 3022 2063 
Q 3016 2534 2758 2815 
Q 2500 3097 2075 3097 
Q 1594 3097 1305 2825 
Q 1016 2553 972 2059 
L 3022 2063 
z
" transform="scale(0.015625)"/>
       <path id="DejaVuSans-20" transform="scale(0.015625)"/>
       <path id="DejaVuSans-5b" d="M 550 4863 
L 1875 4863 
L 1875 4416 
L 1125 4416 
L 1125 -397 
L 1875 -397 
L 1875 -844 
L 550 -844 
L 550 4863 
z
" transform="scale(0.015625)"/>
       <path id="DejaVuSans-68" d="M 3513 2113 
L 3513 0 
L 2938 0 
L 2938 2094 
Q 2938 2591 2744 2837 
Q 2550 3084 2163 3084 
Q 1697 3084 1428 2787 
Q 1159 2491 1159 1978 
L 1159 0 
L 581 0 
L 581 4863 
L 1159 4863 
L 1159 2956 
Q 1366 3272 1645 3428 
Q 1925 3584 2291 3584 
Q 2894 3584 3203 3211 
Q 3513 2838 3513 2113 
z
" transform="scale(0.015625)"/>
       <path id="DejaVuSans-5d" d="M 1947 4863 
L 1947 -844 
L 622 -844 
L 622 -397 
L 1369 -397 
L 1369 4416 
L 622 4416 
L 622 4863 
L 1947 4863 
z
" transform="scale(0.015625)"/>
      </defs>
      <use xlink:href="#DejaVuSans-54"/>
      <use xlink:href="#DejaVuSans-69" x="57.958984"/>
      <use xlink:href="#DejaVuSans-6d" x="85.742188"/>
      <use xlink:href="#DejaVuSans-65" x="183.154297"/>
      <use xlink:href="#DejaVuSans-20" x="244.677734"/>
      <use xlink:href="#DejaVuSans-5b" x="276.464844"/>
      <use xlink:href="#DejaVuSans-68" x="315.478516"/>
      <use xlink:href="#DejaVuSans-5d" x="378.857422"/>
     </g>
    </g>
   </g>
   <g id="matplotlib.axis_2">
    <g id="ytick_1">
     <g id="line2d_14">
      <defs>
       <path id="mc7e0c46856" d="M 0 0 
L -3.5 0 
" style="stroke: #000000; stroke-width: 0.8"/>
      </defs>
      <g>
       <use xlink:href="#mc7e0c46856" x="166.5" y="629.2656" style="stroke: #000000; stroke-width: 0.8"/>
      </g>
     </g>
     <g id="text_15">
      <!-- 0.00 -->
      <g transform="translate(137.234375 633.064819) scale(0.1 -0.1)">
       <defs>
        <path id="DejaVuSans-2e" d="M 684 794 
L 1344 794 
L 1344 0 
L 684 0 
L 684 794 
z
" transform="scale(0.015625)"/>
       </defs>
       <use xlink:href="#DejaVuSans-30"/>
       <use xlink:href="#DejaVuSans-2e" x="63.623047"/>
       <use xlink:href="#DejaVuSans-30" x="95.410156"/>
       <use xlink:href="#DejaVuSans-30" x="159.033203"/>
      </g>
     </g>
    </g>
    <g id="ytick_2">
     <g id="line2d_15">
      <g>
       <use xlink:href="#mc7e0c46856" x="166.5" y="564.4536" style="stroke: #000000; stroke-width: 0.8"/>
      </g>
     </g>
     <g id="text_16">
      <!-- 0.25 -->
      <g transform="translate(137.234375 568.252819) scale(0.1 -0.1)">
       <defs>
        <path id="DejaVuSans-35" d="M 691 4666 
L 3169 4666 
L 3169 4134 
L 1269 4134 
L 1269 2991 
Q 1406 3038 1543 3061 
Q 1681 3084 1819 3084 
Q 2600 3084 3056 2656 
Q 3513 2228 3513 1497 
Q 3513 744 3044 326 
Q 2575 -91 1722 -91 
Q 1428 -91 1123 -41 
Q 819 9 494 109 
L 494 744 
Q 775 591 1075 516 
Q 1375 441 1709 441 
Q 2250 441 2565 725 
Q 2881 1009 2881 1497 
Q 2881 1984 2565 2268 
Q 2250 2553 1709 2553 
Q 1456 2553 1204 2497 
Q 953 2441 691 2322 
L 691 4666 
z
" transform="scale(0.015625)"/>
       </defs>
       <use xlink:href="#DejaVuSans-30"/>
       <use xlink:href="#DejaVuSans-2e" x="63.623047"/>
       <use xlink:href="#DejaVuSans-32" x="95.410156"/>
       <use xlink:href="#DejaVuSans-35" x="159.033203"/>
      </g>
     </g>
    </g>
    <g id="ytick_3">
     <g id="line2d_16">
      <g>
       <use xlink:href="#mc7e0c46856" x="166.5" y="499.6416" style="stroke: #000000; stroke-width: 0.8"/>
      </g>
     </g>
     <g id="text_17">
      <!-- 0.50 -->
      <g transform="translate(137.234375 503.440819) scale(0.1 -0.1)">
       <use xlink:href="#DejaVuSans-30"/>
       <use xlink:href="#DejaVuSans-2e" x="63.623047"/>
       <use xlink:href="#DejaVuSans-35" x="95.410156"/>
       <use xlink:href="#DejaVuSans-30" x="159.033203"/>
      </g>
     </g>
    </g>
    <g id="ytick_4">
     <g id="line2d_17">
      <g>
       <use xlink:href="#mc7e0c46856" x="166.5" y="434.8296" style="stroke: #000000; stroke-width: 0.8"/>
      </g>
     </g>
     <g id="text_18">
      <!-- 0.75 -->
      <g transform="translate(137.234375 438.628819) scale(0.1 -0.1)">
       <defs>
        <path id="DejaVuSans-37" d="M 525 4666 
L 3525 4666 
L 3525 4397 
L 1831 0 
L 1172 0 
L 2766 4134 
L 525 4134 
L 525 4666 
z
" transform="scale(0.015625)"/>
       </defs>
       <use xlink:href="#DejaVuSans-30"/>
       <use xlink:href="#DejaVuSans-2e" x="63.623047"/>
       <use xlink:href="#DejaVuSans-37" x="95.410156"/>
       <use xlink:href="#DejaVuSans-35" x="159.033203"/>
      </g>
     </g>
    </g>
    <g id="ytick_5">
     <g id="line2d_18">
      <g>
       <use xlink:href="#mc7e0c46856" x="166.5" y="370.0176" style="stroke: #000000; stroke-width: 0.8"/>
      </g>
     </g>
     <g id="text_19">
      <!-- 1.00 -->
      <g transform="translate(137.234375 373.816819) scale(0.1 -0.1)">
       <use xlink:href="#DejaVuSans-31"/>
       <use xlink:href="#DejaVuSans-2e" x="63.623047"/>
       <use xlink:href="#DejaVuSans-30" x="95.410156"/>
       <use xlink:href="#DejaVuSans-30" x="159.033203"/>
      </g>
     </g>
    </g>
    <g id="ytick_6">
     <g id="line2d_19">
      <g>
       <use xlink:href="#mc7e0c46856" x="166.5" y="305.2056" style="stroke: #000000; stroke-width: 0.8"/>
      </g>
     </g>
     <g id="text_20">
      <!-- 1.25 -->
      <g transform="translate(137.234375 309.004819) scale(0.1 -0.1)">
       <use xlink:href="#DejaVuSans-31"/>
       <use xlink:href="#DejaVuSans-2e" x="63.623047"/>
       <use xlink:href="#DejaVuSans-32" x="95.410156"/>
       <use xlink:href="#DejaVuSans-35" x="159.033203"/>
      </g>
     </g>
    </g>
    <g id="ytick_7">
     <g id="line2d_20">
      <g>
       <use xlink:href="#mc7e0c46856" x="166.5" y="240.3936" style="stroke: #000000; stroke-width: 0.8"/>
      </g>
     </g>
     <g id="text_21">
      <!-- 1.50 -->
      <g transform="translate(137.234375 244.192819) scale(0.1 -0.1)">
       <use xlink:href="#DejaVuSans-31"/>
       <use xlink:href="#DejaVuSans-2e" x="63.623047"/>
       <use xlink:href="#DejaVuSans-35" x="95.410156"/>
       <use xlink:href="#DejaVuSans-30" x="159.033203"/>
      </g>
     </g>
    </g>
    <g id="ytick_8">
     <g id="line2d_21">
      <g>
       <use xlink:href="#mc7e0c46856" x="166.5" y="175.5816" style="stroke: #000000; stroke-width: 0.8"/>
      </g>
     </g>
     <g id="text_22">
      <!-- 1.75 -->
      <g transform="translate(137.234375 179.380819) scale(0.1 -0.1)">
       <use xlink:href="#DejaVuSans-31"/>
       <use xlink:href="#DejaVuSans-2e" x="63.623047"/>
       <use xlink:href="#DejaVuSans-37" x="95.410156"/>
       <use xlink:href="#DejaVuSans-35" x="159.033203"/>
      </g>
     </g>
    </g>
    <g id="ytick_9">
     <g id="line2d_22">
      <g>
       <use xlink:href="#mc7e0c46856" x="166.5" y="110.7696" style="stroke: #000000; stroke-width: 0.8"/>
      </g>
     </g>
     <g id="text_23">
      <!-- 2.00 -->
      <g transform="translate(137.234375 114.568819) scale(0.1 -0.1)">
       <use xlink:href="#DejaVuSans-32"/>
       <use xlink:href="#DejaVuSans-2e" x="63.623047"/>
       <use xlink:href="#DejaVuSans-30" x="95.410156"/>
       <use xlink:href="#DejaVuSans-30" x="159.033203"/>
      </g>
     </g>
    </g>
    <g id="text_24">
     <!-- Power usage [kWh] -->
     <g transform="translate(131.154687 405.345044) rotate(-90) scale(0.1 -0.1)">
      <defs>
       <path id="DejaVuSans-50" d="M 1259 4147 
L 1259 2394 
L 2053 2394 
Q 2494 2394 2734 2622 
Q 2975 2850 2975 3272 
Q 2975 3691 2734 3919 
Q 2494 4147 2053 4147 
L 1259 4147 
z
M 628 4666 
L 2053 4666 
Q 2838 4666 3239 4311 
Q 3641 3956 3641 3272 
Q 3641 2581 3239 2228 
Q 2838 1875 2053 1875 
L 1259 1875 
L 1259 0 
L 628 0 
L 628 4666 
z
" transform="scale(0.015625)"/>
       <path id="DejaVuSans-6f" d="M 1959 3097 
Q 1497 3097 1228 2736 
Q 959 2375 959 1747 
Q 959 1119 1226 758 
Q 1494 397 1959 397 
Q 2419 397 2687 759 
Q 2956 1122 2956 1747 
Q 2956 2369 2687 2733 
Q 2419 3097 1959 3097 
z
M 1959 3584 
Q 2709 3584 3137 3096 
Q 3566 2609 3566 1747 
Q 3566 888 3137 398 
Q 2709 -91 1959 -91 
Q 1206 -91 779 398 
Q 353 888 353 1747 
Q 353 2609 779 3096 
Q 1206 3584 1959 3584 
z
" transform="scale(0.015625)"/>
       <path id="DejaVuSans-77" d="M 269 3500 
L 844 3500 
L 1563 769 
L 2278 3500 
L 2956 3500 
L 3675 769 
L 4391 3500 
L 4966 3500 
L 4050 0 
L 3372 0 
L 2619 2869 
L 1863 0 
L 1184 0 
L 269 3500 
z
" transform="scale(0.015625)"/>
       <path id="DejaVuSans-72" d="M 2631 2963 
Q 2534 3019 2420 3045 
Q 2306 3072 2169 3072 
Q 1681 3072 1420 2755 
Q 1159 2438 1159 1844 
L 1159 0 
L 581 0 
L 581 3500 
L 1159 3500 
L 1159 2956 
Q 1341 3275 1631 3429 
Q 1922 3584 2338 3584 
Q 2397 3584 2469 3576 
Q 2541 3569 2628 3553 
L 2631 2963 
z
" transform="scale(0.015625)"/>
       <path id="DejaVuSans-75" d="M 544 1381 
L 544 3500 
L 1119 3500 
L 1119 1403 
Q 1119 906 1312 657 
Q 1506 409 1894 409 
Q 2359 409 2629 706 
Q 2900 1003 2900 1516 
L 2900 3500 
L 3475 3500 
L 3475 0 
L 2900 0 
L 2900 538 
Q 2691 219 2414 64 
Q 2138 -91 1772 -91 
Q 1169 -91 856 284 
Q 544 659 544 1381 
z
M 1991 3584 
L 1991 3584 
z
" transform="scale(0.015625)"/>
       <path id="DejaVuSans-73" d="M 2834 3397 
L 2834 2853 
Q 2591 2978 2328 3040 
Q 2066 3103 1784 3103 
Q 1356 3103 1142 2972 
Q 928 2841 928 2578 
Q 928 2378 1081 2264 
Q 1234 2150 1697 2047 
L 1894 2003 
Q 2506 1872 2764 1633 
Q 3022 1394 3022 966 
Q 3022 478 2636 193 
Q 2250 -91 1575 -91 
Q 1294 -91 989 -36 
Q 684 19 347 128 
L 347 722 
Q 666 556 975 473 
Q 1284 391 1588 391 
Q 1994 391 2212 530 
Q 2431 669 2431 922 
Q 2431 1156 2273 1281 
Q 2116 1406 1581 1522 
L 1381 1569 
Q 847 1681 609 1914 
Q 372 2147 372 2553 
Q 372 3047 722 3315 
Q 1072 3584 1716 3584 
Q 2034 3584 2315 3537 
Q 2597 3491 2834 3397 
z
" transform="scale(0.015625)"/>
       <path id="DejaVuSans-61" d="M 2194 1759 
Q 1497 1759 1228 1600 
Q 959 1441 959 1056 
Q 959 750 1161 570 
Q 1363 391 1709 391 
Q 2188 391 2477 730 
Q 2766 1069 2766 1631 
L 2766 1759 
L 2194 1759 
z
M 3341 1997 
L 3341 0 
L 2766 0 
L 2766 531 
Q 2569 213 2275 61 
Q 1981 -91 1556 -91 
Q 1019 -91 701 211 
Q 384 513 384 1019 
Q 384 1609 779 1909 
Q 1175 2209 1959 2209 
L 2766 2209 
L 2766 2266 
Q 2766 2663 2505 2880 
Q 2244 3097 1772 3097 
Q 1472 3097 1187 3025 
Q 903 2953 641 2809 
L 641 3341 
Q 956 3463 1253 3523 
Q 1550 3584 1831 3584 
Q 2591 3584 2966 3190 
Q 3341 2797 3341 1997 
z
" transform="scale(0.015625)"/>
       <path id="DejaVuSans-67" d="M 2906 1791 
Q 2906 2416 2648 2759 
Q 2391 3103 1925 3103 
Q 1463 3103 1205 2759 
Q 947 2416 947 1791 
Q 947 1169 1205 825 
Q 1463 481 1925 481 
Q 2391 481 2648 825 
Q 2906 1169 2906 1791 
z
M 3481 434 
Q 3481 -459 3084 -895 
Q 2688 -1331 1869 -1331 
Q 1566 -1331 1297 -1286 
Q 1028 -1241 775 -1147 
L 775 -588 
Q 1028 -725 1275 -790 
Q 1522 -856 1778 -856 
Q 2344 -856 2625 -561 
Q 2906 -266 2906 331 
L 2906 616 
Q 2728 306 2450 153 
Q 2172 0 1784 0 
Q 1141 0 747 490 
Q 353 981 353 1791 
Q 353 2603 747 3093 
Q 1141 3584 1784 3584 
Q 2172 3584 2450 3431 
Q 2728 3278 2906 2969 
L 2906 3500 
L 3481 3500 
L 3481 434 
z
" transform="scale(0.015625)"/>
       <path id="DejaVuSans-6b" d="M 581 4863 
L 1159 4863 
L 1159 1991 
L 2875 3500 
L 3609 3500 
L 1753 1863 
L 3688 0 
L 2938 0 
L 1159 1709 
L 1159 0 
L 581 0 
L 581 4863 
z
" transform="scale(0.015625)"/>
       <path id="DejaVuSans-57" d="M 213 4666 
L 850 4666 
L 1831 722 
L 2809 4666 
L 3519 4666 
L 4500 722 
L 5478 4666 
L 6119 4666 
L 4947 0 
L 4153 0 
L 3169 4050 
L 2175 0 
L 1381 0 
L 213 4666 
z
" transform="scale(0.015625)"/>
      </defs>
      <use xlink:href="#DejaVuSans-50"/>
      <use xlink:href="#DejaVuSans-6f" x="56.677734"/>
      <use xlink:href="#DejaVuSans-77" x="117.859375"/>
      <use xlink:href="#DejaVuSans-65" x="199.646484"/>
      <use xlink:href="#DejaVuSans-72" x="261.169922"/>
      <use xlink:href="#DejaVuSans-20" x="302.283203"/>
      <use xlink:href="#DejaVuSans-75" x="334.070312"/>
      <use xlink:href="#DejaVuSans-73" x="397.449219"/>
      <use xlink:href="#DejaVuSans-61" x="449.548828"/>
      <use xlink:href="#DejaVuSans-67" x="510.828125"/>
      <use xlink:href="#DejaVuSans-65" x="574.304688"/>
      <use xlink:href="#DejaVuSans-20" x="635.828125"/>
      <use xlink:href="#DejaVuSans-5b" x="667.615234"/>
      <use xlink:href="#DejaVuSans-6b" x="706.628906"/>
      <use xlink:href="#DejaVuSans-57" x="764.539062"/>
      <use xlink:href="#DejaVuSans-68" x="863.416016"/>
      <use xlink:href="#DejaVuSans-5d" x="926.794922"/>
     </g>
    </g>
   </g>
   <g id="patch_51">
    <path d="M 166.5 629.2656 
L 166.5 84.8448 
" style="fill: none; stroke: #000000; stroke-width: 0.8; stroke-linejoin: miter; stroke-linecap: square"/>
   </g>
   <g id="patch_52">
    <path d="M 1198.8 629.2656 
L 1198.8 84.8448 
" style="fill: none; stroke: #000000; stroke-width: 0.8; stroke-linejoin: miter; stroke-linecap: square"/>
   </g>
   <g id="patch_53">
    <path d="M 166.5 629.2656 
L 1198.8 629.2656 
" style="fill: none; stroke: #000000; stroke-width: 0.8; stroke-linejoin: miter; stroke-linecap: square"/>
   </g>
   <g id="patch_54">
    <path d="M 166.5 84.8448 
L 1198.8 84.8448 
" style="fill: none; stroke: #000000; stroke-width: 0.8; stroke-linejoin: miter; stroke-linecap: square"/>
   </g>
   <g id="legend_1">
    <g id="patch_55">
     <path d="M 173.5 122.20105 
L 272.04375 122.20105 
Q 274.04375 122.20105 274.04375 120.20105 
L 274.04375 91.8448 
Q 274.04375 89.8448 272.04375 89.8448 
L 173.5 89.8448 
Q 171.5 89.8448 171.5 91.8448 
L 171.5 120.20105 
Q 171.5 122.20105 173.5 122.20105 
z
" style="fill: #ffffff; opacity: 0.8; stroke: #cccccc; stroke-linejoin: miter"/>
    </g>
    <g id="patch_56">
     <path d="M 175.5 101.443238 
L 195.5 101.443238 
L 195.5 94.443238 
L 175.5 94.443238 
z
" style="fill: #1f77b4"/>
    </g>
    <g id="text_25">
     <!-- Non-shiftable -->
     <g transform="translate(203.5 101.443238) scale(0.1 -0.1)">
      <defs>
       <path id="DejaVuSans-4e" d="M 628 4666 
L 1478 4666 
L 3547 763 
L 3547 4666 
L 4159 4666 
L 4159 0 
L 3309 0 
L 1241 3903 
L 1241 0 
L 628 0 
L 628 4666 
z
" transform="scale(0.015625)"/>
       <path id="DejaVuSans-6e" d="M 3513 2113 
L 3513 0 
L 2938 0 
L 2938 2094 
Q 2938 2591 2744 2837 
Q 2550 3084 2163 3084 
Q 1697 3084 1428 2787 
Q 1159 2491 1159 1978 
L 1159 0 
L 581 0 
L 581 3500 
L 1159 3500 
L 1159 2956 
Q 1366 3272 1645 3428 
Q 1925 3584 2291 3584 
Q 2894 3584 3203 3211 
Q 3513 2838 3513 2113 
z
" transform="scale(0.015625)"/>
       <path id="DejaVuSans-2d" d="M 313 2009 
L 1997 2009 
L 1997 1497 
L 313 1497 
L 313 2009 
z
" transform="scale(0.015625)"/>
       <path id="DejaVuSans-66" d="M 2375 4863 
L 2375 4384 
L 1825 4384 
Q 1516 4384 1395 4259 
Q 1275 4134 1275 3809 
L 1275 3500 
L 2222 3500 
L 2222 3053 
L 1275 3053 
L 1275 0 
L 697 0 
L 697 3053 
L 147 3053 
L 147 3500 
L 697 3500 
L 697 3744 
Q 697 4328 969 4595 
Q 1241 4863 1831 4863 
L 2375 4863 
z
" transform="scale(0.015625)"/>
       <path id="DejaVuSans-74" d="M 1172 4494 
L 1172 3500 
L 2356 3500 
L 2356 3053 
L 1172 3053 
L 1172 1153 
Q 1172 725 1289 603 
Q 1406 481 1766 481 
L 2356 481 
L 2356 0 
L 1766 0 
Q 1100 0 847 248 
Q 594 497 594 1153 
L 594 3053 
L 172 3053 
L 172 3500 
L 594 3500 
L 594 4494 
L 1172 4494 
z
" transform="scale(0.015625)"/>
       <path id="DejaVuSans-62" d="M 3116 1747 
Q 3116 2381 2855 2742 
Q 2594 3103 2138 3103 
Q 1681 3103 1420 2742 
Q 1159 2381 1159 1747 
Q 1159 1113 1420 752 
Q 1681 391 2138 391 
Q 2594 391 2855 752 
Q 3116 1113 3116 1747 
z
M 1159 2969 
Q 1341 3281 1617 3432 
Q 1894 3584 2278 3584 
Q 2916 3584 3314 3078 
Q 3713 2572 3713 1747 
Q 3713 922 3314 415 
Q 2916 -91 2278 -91 
Q 1894 -91 1617 61 
Q 1341 213 1159 525 
L 1159 0 
L 581 0 
L 581 4863 
L 1159 4863 
L 1159 2969 
z
" transform="scale(0.015625)"/>
       <path id="DejaVuSans-6c" d="M 603 4863 
L 1178 4863 
L 1178 0 
L 603 0 
L 603 4863 
z
" transform="scale(0.015625)"/>
      </defs>
      <use xlink:href="#DejaVuSans-4e"/>
      <use xlink:href="#DejaVuSans-6f" x="74.804688"/>
      <use xlink:href="#DejaVuSans-6e" x="135.986328"/>
      <use xlink:href="#DejaVuSans-2d" x="199.365234"/>
      <use xlink:href="#DejaVuSans-73" x="235.449219"/>
      <use xlink:href="#DejaVuSans-68" x="287.548828"/>
      <use xlink:href="#DejaVuSans-69" x="350.927734"/>
      <use xlink:href="#DejaVuSans-66" x="378.710938"/>
      <use xlink:href="#DejaVuSans-74" x="412.166016"/>
      <use xlink:href="#DejaVuSans-61" x="451.375"/>
      <use xlink:href="#DejaVuSans-62" x="512.654297"/>
      <use xlink:href="#DejaVuSans-6c" x="576.130859"/>
      <use xlink:href="#DejaVuSans-65" x="603.914062"/>
     </g>
    </g>
    <g id="patch_57">
     <path d="M 175.5 116.121363 
L 195.5 116.121363 
L 195.5 109.121363 
L 175.5 109.121363 
z
" style="fill: #ff7f0e"/>
    </g>
    <g id="text_26">
     <!-- Shiftable -->
     <g transform="translate(203.5 116.121363) scale(0.1 -0.1)">
      <defs>
       <path id="DejaVuSans-53" d="M 3425 4513 
L 3425 3897 
Q 3066 4069 2747 4153 
Q 2428 4238 2131 4238 
Q 1616 4238 1336 4038 
Q 1056 3838 1056 3469 
Q 1056 3159 1242 3001 
Q 1428 2844 1947 2747 
L 2328 2669 
Q 3034 2534 3370 2195 
Q 3706 1856 3706 1288 
Q 3706 609 3251 259 
Q 2797 -91 1919 -91 
Q 1588 -91 1214 -16 
Q 841 59 441 206 
L 441 856 
Q 825 641 1194 531 
Q 1563 422 1919 422 
Q 2459 422 2753 634 
Q 3047 847 3047 1241 
Q 3047 1584 2836 1778 
Q 2625 1972 2144 2069 
L 1759 2144 
Q 1053 2284 737 2584 
Q 422 2884 422 3419 
Q 422 4038 858 4394 
Q 1294 4750 2059 4750 
Q 2388 4750 2728 4690 
Q 3069 4631 3425 4513 
z
" transform="scale(0.015625)"/>
      </defs>
      <use xlink:href="#DejaVuSans-53"/>
      <use xlink:href="#DejaVuSans-68" x="63.476562"/>
      <use xlink:href="#DejaVuSans-69" x="126.855469"/>
      <use xlink:href="#DejaVuSans-66" x="154.638672"/>
      <use xlink:href="#DejaVuSans-74" x="188.09375"/>
      <use xlink:href="#DejaVuSans-61" x="227.302734"/>
      <use xlink:href="#DejaVuSans-62" x="288.582031"/>
      <use xlink:href="#DejaVuSans-6c" x="352.058594"/>
      <use xlink:href="#DejaVuSans-65" x="379.841797"/>
     </g>
    </g>
   </g>
  </g>
  <g id="axes_2">
   <g id="matplotlib.axis_3">
    <g id="ytick_10">
     <g id="line2d_23">
      <defs>
       <path id="m9e791da34a" d="M 0 0 
L 3.5 0 
" style="stroke: #000000; stroke-width: 0.8"/>
      </defs>
      <g>
       <use xlink:href="#m9e791da34a" x="1198.8" y="629.2656" style="stroke: #000000; stroke-width: 0.8"/>
      </g>
     </g>
     <g id="text_27">
      <!-- 0.0 -->
      <g transform="translate(1205.8 633.064819) scale(0.1 -0.1)">
       <use xlink:href="#DejaVuSans-30"/>
       <use xlink:href="#DejaVuSans-2e" x="63.623047"/>
       <use xlink:href="#DejaVuSans-30" x="95.410156"/>
      </g>
     </g>
    </g>
    <g id="ytick_11">
     <g id="line2d_24">
      <g>
       <use xlink:href="#m9e791da34a" x="1198.8" y="381.8016" style="stroke: #000000; stroke-width: 0.8"/>
      </g>
     </g>
     <g id="text_28">
      <!-- 0.5 -->
      <g transform="translate(1205.8 385.600819) scale(0.1 -0.1)">
       <use xlink:href="#DejaVuSans-30"/>
       <use xlink:href="#DejaVuSans-2e" x="63.623047"/>
       <use xlink:href="#DejaVuSans-35" x="95.410156"/>
      </g>
     </g>
    </g>
    <g id="ytick_12">
     <g id="line2d_25">
      <g>
       <use xlink:href="#m9e791da34a" x="1198.8" y="134.3376" style="stroke: #000000; stroke-width: 0.8"/>
      </g>
     </g>
     <g id="text_29">
      <!-- 1.0 -->
      <g transform="translate(1205.8 138.136819) scale(0.1 -0.1)">
       <use xlink:href="#DejaVuSans-31"/>
       <use xlink:href="#DejaVuSans-2e" x="63.623047"/>
       <use xlink:href="#DejaVuSans-30" x="95.410156"/>
      </g>
     </g>
    </g>
    <g id="text_30">
     <!-- Electricity price [NOK/kWh] -->
     <g transform="translate(1233.301563 425.063794) rotate(-90) scale(0.1 -0.1)">
      <defs>
       <path id="DejaVuSans-45" d="M 628 4666 
L 3578 4666 
L 3578 4134 
L 1259 4134 
L 1259 2753 
L 3481 2753 
L 3481 2222 
L 1259 2222 
L 1259 531 
L 3634 531 
L 3634 0 
L 628 0 
L 628 4666 
z
" transform="scale(0.015625)"/>
       <path id="DejaVuSans-63" d="M 3122 3366 
L 3122 2828 
Q 2878 2963 2633 3030 
Q 2388 3097 2138 3097 
Q 1578 3097 1268 2742 
Q 959 2388 959 1747 
Q 959 1106 1268 751 
Q 1578 397 2138 397 
Q 2388 397 2633 464 
Q 2878 531 3122 666 
L 3122 134 
Q 2881 22 2623 -34 
Q 2366 -91 2075 -91 
Q 1284 -91 818 406 
Q 353 903 353 1747 
Q 353 2603 823 3093 
Q 1294 3584 2113 3584 
Q 2378 3584 2631 3529 
Q 2884 3475 3122 3366 
z
" transform="scale(0.015625)"/>
       <path id="DejaVuSans-79" d="M 2059 -325 
Q 1816 -950 1584 -1140 
Q 1353 -1331 966 -1331 
L 506 -1331 
L 506 -850 
L 844 -850 
Q 1081 -850 1212 -737 
Q 1344 -625 1503 -206 
L 1606 56 
L 191 3500 
L 800 3500 
L 1894 763 
L 2988 3500 
L 3597 3500 
L 2059 -325 
z
" transform="scale(0.015625)"/>
       <path id="DejaVuSans-70" d="M 1159 525 
L 1159 -1331 
L 581 -1331 
L 581 3500 
L 1159 3500 
L 1159 2969 
Q 1341 3281 1617 3432 
Q 1894 3584 2278 3584 
Q 2916 3584 3314 3078 
Q 3713 2572 3713 1747 
Q 3713 922 3314 415 
Q 2916 -91 2278 -91 
Q 1894 -91 1617 61 
Q 1341 213 1159 525 
z
M 3116 1747 
Q 3116 2381 2855 2742 
Q 2594 3103 2138 3103 
Q 1681 3103 1420 2742 
Q 1159 2381 1159 1747 
Q 1159 1113 1420 752 
Q 1681 391 2138 391 
Q 2594 391 2855 752 
Q 3116 1113 3116 1747 
z
" transform="scale(0.015625)"/>
       <path id="DejaVuSans-4f" d="M 2522 4238 
Q 1834 4238 1429 3725 
Q 1025 3213 1025 2328 
Q 1025 1447 1429 934 
Q 1834 422 2522 422 
Q 3209 422 3611 934 
Q 4013 1447 4013 2328 
Q 4013 3213 3611 3725 
Q 3209 4238 2522 4238 
z
M 2522 4750 
Q 3503 4750 4090 4092 
Q 4678 3434 4678 2328 
Q 4678 1225 4090 567 
Q 3503 -91 2522 -91 
Q 1538 -91 948 565 
Q 359 1222 359 2328 
Q 359 3434 948 4092 
Q 1538 4750 2522 4750 
z
" transform="scale(0.015625)"/>
       <path id="DejaVuSans-4b" d="M 628 4666 
L 1259 4666 
L 1259 2694 
L 3353 4666 
L 4166 4666 
L 1850 2491 
L 4331 0 
L 3500 0 
L 1259 2247 
L 1259 0 
L 628 0 
L 628 4666 
z
" transform="scale(0.015625)"/>
       <path id="DejaVuSans-2f" d="M 1625 4666 
L 2156 4666 
L 531 -594 
L 0 -594 
L 1625 4666 
z
" transform="scale(0.015625)"/>
      </defs>
      <use xlink:href="#DejaVuSans-45"/>
      <use xlink:href="#DejaVuSans-6c" x="63.183594"/>
      <use xlink:href="#DejaVuSans-65" x="90.966797"/>
      <use xlink:href="#DejaVuSans-63" x="152.490234"/>
      <use xlink:href="#DejaVuSans-74" x="207.470703"/>
      <use xlink:href="#DejaVuSans-72" x="246.679688"/>
      <use xlink:href="#DejaVuSans-69" x="287.792969"/>
      <use xlink:href="#DejaVuSans-63" x="315.576172"/>
      <use xlink:href="#DejaVuSans-69" x="370.556641"/>
      <use xlink:href="#DejaVuSans-74" x="398.339844"/>
      <use xlink:href="#DejaVuSans-79" x="437.548828"/>
      <use xlink:href="#DejaVuSans-20" x="496.728516"/>
      <use xlink:href="#DejaVuSans-70" x="528.515625"/>
      <use xlink:href="#DejaVuSans-72" x="591.992188"/>
      <use xlink:href="#DejaVuSans-69" x="633.105469"/>
      <use xlink:href="#DejaVuSans-63" x="660.888672"/>
      <use xlink:href="#DejaVuSans-65" x="715.869141"/>
      <use xlink:href="#DejaVuSans-20" x="777.392578"/>
      <use xlink:href="#DejaVuSans-5b" x="809.179688"/>
      <use xlink:href="#DejaVuSans-4e" x="848.193359"/>
      <use xlink:href="#DejaVuSans-4f" x="922.998047"/>
      <use xlink:href="#DejaVuSans-4b" x="1001.708984"/>
      <use xlink:href="#DejaVuSans-2f" x="1067.285156"/>
      <use xlink:href="#DejaVuSans-6b" x="1100.976562"/>
      <use xlink:href="#DejaVuSans-57" x="1158.886719"/>
      <use xlink:href="#DejaVuSans-68" x="1257.763672"/>
      <use xlink:href="#DejaVuSans-5d" x="1321.142578"/>
     </g>
    </g>
   </g>
   <g id="line2d_26">
    <path d="M 213.422727 333.208768 
L 252.525 333.208768 
L 252.525 340.039601 
L 291.627273 340.039601 
L 291.627273 345.432137 
L 330.729545 345.432137 
L 330.729545 336.344003 
L 369.831818 336.344003 
L 369.831818 338.60787 
L 408.934091 338.60787 
L 408.934091 371.987908 
L 448.036364 371.987908 
L 448.036364 388.413563 
L 487.138636 388.413563 
L 487.138636 401.427554 
L 526.240909 401.427554 
L 526.240909 398.620277 
L 565.343182 398.620277 
L 565.343182 384.185232 
L 604.445455 384.185232 
L 604.445455 391.069675 
L 643.547727 391.069675 
L 643.547727 320.271296 
L 682.65 320.271296 
L 682.65 308.835515 
L 721.752273 308.835515 
L 721.752273 349.191017 
L 760.854545 349.191017 
L 760.854545 314.221135 
L 799.956818 314.221135 
L 799.956818 378.303911 
L 839.059091 378.303911 
L 839.059091 331.338163 
L 878.161364 331.338163 
L 878.161364 136.358309 
L 917.263636 136.358309 
L 917.263636 207.25692 
L 956.365909 207.25692 
L 956.365909 183.974737 
L 995.468182 183.974737 
L 995.468182 337.360892 
L 1034.570455 337.360892 
L 1034.570455 388.279933 
L 1073.672727 388.279933 
L 1073.672727 325.750332 
L 1112.775 325.750332 
L 1112.775 377.482905 
L 1151.877273 377.482905 
" clip-path="url(#pca7066aa2b)" style="fill: none; stroke-dasharray: 5.55,2.4; stroke-dashoffset: 0; stroke: #000000; stroke-width: 1.5"/>
   </g>
   <g id="patch_58">
    <path d="M 166.5 629.2656 
L 166.5 84.8448 
" style="fill: none; stroke: #000000; stroke-width: 0.8; stroke-linejoin: miter; stroke-linecap: square"/>
   </g>
   <g id="patch_59">
    <path d="M 1198.8 629.2656 
L 1198.8 84.8448 
" style="fill: none; stroke: #000000; stroke-width: 0.8; stroke-linejoin: miter; stroke-linecap: square"/>
   </g>
   <g id="patch_60">
    <path d="M 166.5 629.2656 
L 1198.8 629.2656 
" style="fill: none; stroke: #000000; stroke-width: 0.8; stroke-linejoin: miter; stroke-linecap: square"/>
   </g>
   <g id="patch_61">
    <path d="M 166.5 84.8448 
L 1198.8 84.8448 
" style="fill: none; stroke: #000000; stroke-width: 0.8; stroke-linejoin: miter; stroke-linecap: square"/>
   </g>
   <g id="legend_2">
    <g id="patch_62">
     <path d="M 1082.059375 107.522925 
L 1191.8 107.522925 
Q 1193.8 107.522925 1193.8 105.522925 
L 1193.8 91.8448 
Q 1193.8 89.8448 1191.8 89.8448 
L 1082.059375 89.8448 
Q 1080.059375 89.8448 1080.059375 91.8448 
L 1080.059375 105.522925 
Q 1080.059375 107.522925 1082.059375 107.522925 
z
" style="fill: #ffffff; opacity: 0.8; stroke: #cccccc; stroke-linejoin: miter"/>
    </g>
    <g id="line2d_27">
     <path d="M 1084.059375 97.943238 
L 1094.059375 97.943238 
L 1104.059375 97.943238 
" style="fill: none; stroke-dasharray: 5.55,2.4; stroke-dashoffset: 0; stroke: #000000; stroke-width: 1.5"/>
    </g>
    <g id="text_31">
     <!-- Electricity price -->
     <g transform="translate(1112.059375 101.443238) scale(0.1 -0.1)">
      <use xlink:href="#DejaVuSans-45"/>
      <use xlink:href="#DejaVuSans-6c" x="63.183594"/>
      <use xlink:href="#DejaVuSans-65" x="90.966797"/>
      <use xlink:href="#DejaVuSans-63" x="152.490234"/>
      <use xlink:href="#DejaVuSans-74" x="207.470703"/>
      <use xlink:href="#DejaVuSans-72" x="246.679688"/>
      <use xlink:href="#DejaVuSans-69" x="287.792969"/>
      <use xlink:href="#DejaVuSans-63" x="315.576172"/>
      <use xlink:href="#DejaVuSans-69" x="370.556641"/>
      <use xlink:href="#DejaVuSans-74" x="398.339844"/>
      <use xlink:href="#DejaVuSans-79" x="437.548828"/>
      <use xlink:href="#DejaVuSans-20" x="496.728516"/>
      <use xlink:href="#DejaVuSans-70" x="528.515625"/>
      <use xlink:href="#DejaVuSans-72" x="591.992188"/>
      <use xlink:href="#DejaVuSans-69" x="633.105469"/>
      <use xlink:href="#DejaVuSans-63" x="660.888672"/>
      <use xlink:href="#DejaVuSans-65" x="715.869141"/>
     </g>
    </g>
   </g>
  </g>
 </g>
 <defs>
  <clipPath id="pca7066aa2b">
   <rect x="166.5" y="84.8448" width="1032.3" height="544.4208"/>
  </clipPath>
 </defs>
</svg>
