<?xml version="1.0" encoding="utf-8" standalone="no"?>
<!DOCTYPE svg PUBLIC "-//W3C//DTD SVG 1.1//EN"
  "http://www.w3.org/Graphics/SVG/1.1/DTD/svg11.dtd">
<!-- Created with matplotlib (https://matplotlib.org/) -->
<svg height="720pt" version="1.1" viewBox="0 0 2160 720" width="2160pt" xmlns="http://www.w3.org/2000/svg" xmlns:xlink="http://www.w3.org/1999/xlink">
 <metadata>
  <rdf:RDF xmlns:cc="http://creativecommons.org/ns#" xmlns:dc="http://purl.org/dc/elements/1.1/" xmlns:rdf="http://www.w3.org/1999/02/22-rdf-syntax-ns#">
   <cc:Work>
    <dc:type rdf:resource="http://purl.org/dc/dcmitype/StillImage"/>
    <dc:date>2024-05-03T10:19:43.012459</dc:date>
    <dc:format>image/svg+xml</dc:format>
    <dc:creator>
     <cc:Agent>
      <dc:title>Matplotlib v3.3.4, https://matplotlib.org/</dc:title>
     </cc:Agent>
    </dc:creator>
   </cc:Work>
  </rdf:RDF>
 </metadata>
 <defs>
  <style type="text/css">*{stroke-linecap:butt;stroke-linejoin:round;}</style>
 </defs>
 <g id="figure_1">
  <g id="patch_1">
   <path d="M 0 720 
L 2160 720 
L 2160 0 
L 0 0 
z
" style="fill:#ffffff;"/>
  </g>
  <g id="axes_1">
   <g id="patch_2">
    <path d="M 270 640.8 
L 1944 640.8 
L 1944 86.4 
L 270 86.4 
z
" style="fill:#ffffff;"/>
   </g>
   <g id="matplotlib.axis_1">
    <g id="xtick_1">
     <g id="line2d_1">
      <defs>
       <path d="M 0 0 
L 0 3.5 
" id="m5b6c892cef" style="stroke:#000000;stroke-width:0.8;"/>
      </defs>
      <g>
       <use style="stroke:#000000;stroke-width:0.8;" x="346.090909" xlink:href="#m5b6c892cef" y="640.8"/>
      </g>
     </g>
     <g id="text_1">
      <!-- 11-01 -->
      <g transform="translate(337.768594 673.719883)rotate(-45)scale(0.1 -0.1)">
       <defs>
        <path d="M 12.40625 8.296875 
L 28.515625 8.296875 
L 28.515625 63.921875 
L 10.984375 60.40625 
L 10.984375 69.390625 
L 28.421875 72.90625 
L 38.28125 72.90625 
L 38.28125 8.296875 
L 54.390625 8.296875 
L 54.390625 0 
L 12.40625 0 
z
" id="DejaVuSans-49"/>
        <path d="M 4.890625 31.390625 
L 31.203125 31.390625 
L 31.203125 23.390625 
L 4.890625 23.390625 
z
" id="DejaVuSans-45"/>
        <path d="M 31.78125 66.40625 
Q 24.171875 66.40625 20.328125 58.90625 
Q 16.5 51.421875 16.5 36.375 
Q 16.5 21.390625 20.328125 13.890625 
Q 24.171875 6.390625 31.78125 6.390625 
Q 39.453125 6.390625 43.28125 13.890625 
Q 47.125 21.390625 47.125 36.375 
Q 47.125 51.421875 43.28125 58.90625 
Q 39.453125 66.40625 31.78125 66.40625 
z
M 31.78125 74.21875 
Q 44.046875 74.21875 50.515625 64.515625 
Q 56.984375 54.828125 56.984375 36.375 
Q 56.984375 17.96875 50.515625 8.265625 
Q 44.046875 -1.421875 31.78125 -1.421875 
Q 19.53125 -1.421875 13.0625 8.265625 
Q 6.59375 17.96875 6.59375 36.375 
Q 6.59375 54.828125 13.0625 64.515625 
Q 19.53125 74.21875 31.78125 74.21875 
z
" id="DejaVuSans-48"/>
       </defs>
       <use xlink:href="#DejaVuSans-49"/>
       <use x="63.623047" xlink:href="#DejaVuSans-49"/>
       <use x="127.246094" xlink:href="#DejaVuSans-45"/>
       <use x="163.330078" xlink:href="#DejaVuSans-48"/>
       <use x="226.953125" xlink:href="#DejaVuSans-49"/>
      </g>
     </g>
    </g>
    <g id="xtick_2">
     <g id="line2d_2">
      <g>
       <use style="stroke:#000000;stroke-width:0.8;" x="454.943392" xlink:href="#m5b6c892cef" y="640.8"/>
      </g>
     </g>
     <g id="text_2">
      <!-- 11-03 -->
      <g transform="translate(446.621076 673.719883)rotate(-45)scale(0.1 -0.1)">
       <defs>
        <path d="M 40.578125 39.3125 
Q 47.65625 37.796875 51.625 33 
Q 55.609375 28.21875 55.609375 21.1875 
Q 55.609375 10.40625 48.1875 4.484375 
Q 40.765625 -1.421875 27.09375 -1.421875 
Q 22.515625 -1.421875 17.65625 -0.515625 
Q 12.796875 0.390625 7.625 2.203125 
L 7.625 11.71875 
Q 11.71875 9.328125 16.59375 8.109375 
Q 21.484375 6.890625 26.8125 6.890625 
Q 36.078125 6.890625 40.9375 10.546875 
Q 45.796875 14.203125 45.796875 21.1875 
Q 45.796875 27.640625 41.28125 31.265625 
Q 36.765625 34.90625 28.71875 34.90625 
L 20.21875 34.90625 
L 20.21875 43.015625 
L 29.109375 43.015625 
Q 36.375 43.015625 40.234375 45.921875 
Q 44.09375 48.828125 44.09375 54.296875 
Q 44.09375 59.90625 40.109375 62.90625 
Q 36.140625 65.921875 28.71875 65.921875 
Q 24.65625 65.921875 20.015625 65.03125 
Q 15.375 64.15625 9.8125 62.3125 
L 9.8125 71.09375 
Q 15.4375 72.65625 20.34375 73.4375 
Q 25.25 74.21875 29.59375 74.21875 
Q 40.828125 74.21875 47.359375 69.109375 
Q 53.90625 64.015625 53.90625 55.328125 
Q 53.90625 49.265625 50.4375 45.09375 
Q 46.96875 40.921875 40.578125 39.3125 
z
" id="DejaVuSans-51"/>
       </defs>
       <use xlink:href="#DejaVuSans-49"/>
       <use x="63.623047" xlink:href="#DejaVuSans-49"/>
       <use x="127.246094" xlink:href="#DejaVuSans-45"/>
       <use x="163.330078" xlink:href="#DejaVuSans-48"/>
       <use x="226.953125" xlink:href="#DejaVuSans-51"/>
      </g>
     </g>
    </g>
    <g id="xtick_3">
     <g id="line2d_3">
      <g>
       <use style="stroke:#000000;stroke-width:0.8;" x="563.795875" xlink:href="#m5b6c892cef" y="640.8"/>
      </g>
     </g>
     <g id="text_3">
      <!-- 11-05 -->
      <g transform="translate(555.473559 673.719883)rotate(-45)scale(0.1 -0.1)">
       <defs>
        <path d="M 10.796875 72.90625 
L 49.515625 72.90625 
L 49.515625 64.59375 
L 19.828125 64.59375 
L 19.828125 46.734375 
Q 21.96875 47.46875 24.109375 47.828125 
Q 26.265625 48.1875 28.421875 48.1875 
Q 40.625 48.1875 47.75 41.5 
Q 54.890625 34.8125 54.890625 23.390625 
Q 54.890625 11.625 47.5625 5.09375 
Q 40.234375 -1.421875 26.90625 -1.421875 
Q 22.3125 -1.421875 17.546875 -0.640625 
Q 12.796875 0.140625 7.71875 1.703125 
L 7.71875 11.625 
Q 12.109375 9.234375 16.796875 8.0625 
Q 21.484375 6.890625 26.703125 6.890625 
Q 35.15625 6.890625 40.078125 11.328125 
Q 45.015625 15.765625 45.015625 23.390625 
Q 45.015625 31 40.078125 35.4375 
Q 35.15625 39.890625 26.703125 39.890625 
Q 22.75 39.890625 18.8125 39.015625 
Q 14.890625 38.140625 10.796875 36.28125 
z
" id="DejaVuSans-53"/>
       </defs>
       <use xlink:href="#DejaVuSans-49"/>
       <use x="63.623047" xlink:href="#DejaVuSans-49"/>
       <use x="127.246094" xlink:href="#DejaVuSans-45"/>
       <use x="163.330078" xlink:href="#DejaVuSans-48"/>
       <use x="226.953125" xlink:href="#DejaVuSans-53"/>
      </g>
     </g>
    </g>
    <g id="xtick_4">
     <g id="line2d_4">
      <g>
       <use style="stroke:#000000;stroke-width:0.8;" x="672.648357" xlink:href="#m5b6c892cef" y="640.8"/>
      </g>
     </g>
     <g id="text_4">
      <!-- 11-07 -->
      <g transform="translate(664.326042 673.719883)rotate(-45)scale(0.1 -0.1)">
       <defs>
        <path d="M 8.203125 72.90625 
L 55.078125 72.90625 
L 55.078125 68.703125 
L 28.609375 0 
L 18.3125 0 
L 43.21875 64.59375 
L 8.203125 64.59375 
z
" id="DejaVuSans-55"/>
       </defs>
       <use xlink:href="#DejaVuSans-49"/>
       <use x="63.623047" xlink:href="#DejaVuSans-49"/>
       <use x="127.246094" xlink:href="#DejaVuSans-45"/>
       <use x="163.330078" xlink:href="#DejaVuSans-48"/>
       <use x="226.953125" xlink:href="#DejaVuSans-55"/>
      </g>
     </g>
    </g>
    <g id="xtick_5">
     <g id="line2d_5">
      <g>
       <use style="stroke:#000000;stroke-width:0.8;" x="781.50084" xlink:href="#m5b6c892cef" y="640.8"/>
      </g>
     </g>
     <g id="text_5">
      <!-- 11-09 -->
      <g transform="translate(773.178525 673.719883)rotate(-45)scale(0.1 -0.1)">
       <defs>
        <path d="M 10.984375 1.515625 
L 10.984375 10.5 
Q 14.703125 8.734375 18.5 7.8125 
Q 22.3125 6.890625 25.984375 6.890625 
Q 35.75 6.890625 40.890625 13.453125 
Q 46.046875 20.015625 46.78125 33.40625 
Q 43.953125 29.203125 39.59375 26.953125 
Q 35.25 24.703125 29.984375 24.703125 
Q 19.046875 24.703125 12.671875 31.3125 
Q 6.296875 37.9375 6.296875 49.421875 
Q 6.296875 60.640625 12.9375 67.421875 
Q 19.578125 74.21875 30.609375 74.21875 
Q 43.265625 74.21875 49.921875 64.515625 
Q 56.59375 54.828125 56.59375 36.375 
Q 56.59375 19.140625 48.40625 8.859375 
Q 40.234375 -1.421875 26.421875 -1.421875 
Q 22.703125 -1.421875 18.890625 -0.6875 
Q 15.09375 0.046875 10.984375 1.515625 
z
M 30.609375 32.421875 
Q 37.25 32.421875 41.125 36.953125 
Q 45.015625 41.5 45.015625 49.421875 
Q 45.015625 57.28125 41.125 61.84375 
Q 37.25 66.40625 30.609375 66.40625 
Q 23.96875 66.40625 20.09375 61.84375 
Q 16.21875 57.28125 16.21875 49.421875 
Q 16.21875 41.5 20.09375 36.953125 
Q 23.96875 32.421875 30.609375 32.421875 
z
" id="DejaVuSans-57"/>
       </defs>
       <use xlink:href="#DejaVuSans-49"/>
       <use x="63.623047" xlink:href="#DejaVuSans-49"/>
       <use x="127.246094" xlink:href="#DejaVuSans-45"/>
       <use x="163.330078" xlink:href="#DejaVuSans-48"/>
       <use x="226.953125" xlink:href="#DejaVuSans-57"/>
      </g>
     </g>
    </g>
    <g id="xtick_6">
     <g id="line2d_6">
      <g>
       <use style="stroke:#000000;stroke-width:0.8;" x="890.353323" xlink:href="#m5b6c892cef" y="640.8"/>
      </g>
     </g>
     <g id="text_6">
      <!-- 11-11 -->
      <g transform="translate(882.031007 673.719883)rotate(-45)scale(0.1 -0.1)">
       <use xlink:href="#DejaVuSans-49"/>
       <use x="63.623047" xlink:href="#DejaVuSans-49"/>
       <use x="127.246094" xlink:href="#DejaVuSans-45"/>
       <use x="163.330078" xlink:href="#DejaVuSans-49"/>
       <use x="226.953125" xlink:href="#DejaVuSans-49"/>
      </g>
     </g>
    </g>
    <g id="xtick_7">
     <g id="line2d_7">
      <g>
       <use style="stroke:#000000;stroke-width:0.8;" x="999.205805" xlink:href="#m5b6c892cef" y="640.8"/>
      </g>
     </g>
     <g id="text_7">
      <!-- 11-13 -->
      <g transform="translate(990.88349 673.719883)rotate(-45)scale(0.1 -0.1)">
       <use xlink:href="#DejaVuSans-49"/>
       <use x="63.623047" xlink:href="#DejaVuSans-49"/>
       <use x="127.246094" xlink:href="#DejaVuSans-45"/>
       <use x="163.330078" xlink:href="#DejaVuSans-49"/>
       <use x="226.953125" xlink:href="#DejaVuSans-51"/>
      </g>
     </g>
    </g>
    <g id="xtick_8">
     <g id="line2d_8">
      <g>
       <use style="stroke:#000000;stroke-width:0.8;" x="1108.058288" xlink:href="#m5b6c892cef" y="640.8"/>
      </g>
     </g>
     <g id="text_8">
      <!-- 11-15 -->
      <g transform="translate(1099.735973 673.719883)rotate(-45)scale(0.1 -0.1)">
       <use xlink:href="#DejaVuSans-49"/>
       <use x="63.623047" xlink:href="#DejaVuSans-49"/>
       <use x="127.246094" xlink:href="#DejaVuSans-45"/>
       <use x="163.330078" xlink:href="#DejaVuSans-49"/>
       <use x="226.953125" xlink:href="#DejaVuSans-53"/>
      </g>
     </g>
    </g>
    <g id="xtick_9">
     <g id="line2d_9">
      <g>
       <use style="stroke:#000000;stroke-width:0.8;" x="1216.910771" xlink:href="#m5b6c892cef" y="640.8"/>
      </g>
     </g>
     <g id="text_9">
      <!-- 11-17 -->
      <g transform="translate(1208.588455 673.719883)rotate(-45)scale(0.1 -0.1)">
       <use xlink:href="#DejaVuSans-49"/>
       <use x="63.623047" xlink:href="#DejaVuSans-49"/>
       <use x="127.246094" xlink:href="#DejaVuSans-45"/>
       <use x="163.330078" xlink:href="#DejaVuSans-49"/>
       <use x="226.953125" xlink:href="#DejaVuSans-55"/>
      </g>
     </g>
    </g>
    <g id="xtick_10">
     <g id="line2d_10">
      <g>
       <use style="stroke:#000000;stroke-width:0.8;" x="1325.763253" xlink:href="#m5b6c892cef" y="640.8"/>
      </g>
     </g>
     <g id="text_10">
      <!-- 11-19 -->
      <g transform="translate(1317.440938 673.719883)rotate(-45)scale(0.1 -0.1)">
       <use xlink:href="#DejaVuSans-49"/>
       <use x="63.623047" xlink:href="#DejaVuSans-49"/>
       <use x="127.246094" xlink:href="#DejaVuSans-45"/>
       <use x="163.330078" xlink:href="#DejaVuSans-49"/>
       <use x="226.953125" xlink:href="#DejaVuSans-57"/>
      </g>
     </g>
    </g>
    <g id="xtick_11">
     <g id="line2d_11">
      <g>
       <use style="stroke:#000000;stroke-width:0.8;" x="1434.615736" xlink:href="#m5b6c892cef" y="640.8"/>
      </g>
     </g>
     <g id="text_11">
      <!-- 11-21 -->
      <g transform="translate(1426.293421 673.719883)rotate(-45)scale(0.1 -0.1)">
       <defs>
        <path d="M 19.1875 8.296875 
L 53.609375 8.296875 
L 53.609375 0 
L 7.328125 0 
L 7.328125 8.296875 
Q 12.9375 14.109375 22.625 23.890625 
Q 32.328125 33.6875 34.8125 36.53125 
Q 39.546875 41.84375 41.421875 45.53125 
Q 43.3125 49.21875 43.3125 52.78125 
Q 43.3125 58.59375 39.234375 62.25 
Q 35.15625 65.921875 28.609375 65.921875 
Q 23.96875 65.921875 18.8125 64.3125 
Q 13.671875 62.703125 7.8125 59.421875 
L 7.8125 69.390625 
Q 13.765625 71.78125 18.9375 73 
Q 24.125 74.21875 28.421875 74.21875 
Q 39.75 74.21875 46.484375 68.546875 
Q 53.21875 62.890625 53.21875 53.421875 
Q 53.21875 48.921875 51.53125 44.890625 
Q 49.859375 40.875 45.40625 35.40625 
Q 44.1875 33.984375 37.640625 27.21875 
Q 31.109375 20.453125 19.1875 8.296875 
z
" id="DejaVuSans-50"/>
       </defs>
       <use xlink:href="#DejaVuSans-49"/>
       <use x="63.623047" xlink:href="#DejaVuSans-49"/>
       <use x="127.246094" xlink:href="#DejaVuSans-45"/>
       <use x="163.330078" xlink:href="#DejaVuSans-50"/>
       <use x="226.953125" xlink:href="#DejaVuSans-49"/>
      </g>
     </g>
    </g>
    <g id="xtick_12">
     <g id="line2d_12">
      <g>
       <use style="stroke:#000000;stroke-width:0.8;" x="1543.468219" xlink:href="#m5b6c892cef" y="640.8"/>
      </g>
     </g>
     <g id="text_12">
      <!-- 11-23 -->
      <g transform="translate(1535.145903 673.719883)rotate(-45)scale(0.1 -0.1)">
       <use xlink:href="#DejaVuSans-49"/>
       <use x="63.623047" xlink:href="#DejaVuSans-49"/>
       <use x="127.246094" xlink:href="#DejaVuSans-45"/>
       <use x="163.330078" xlink:href="#DejaVuSans-50"/>
       <use x="226.953125" xlink:href="#DejaVuSans-51"/>
      </g>
     </g>
    </g>
    <g id="xtick_13">
     <g id="line2d_13">
      <g>
       <use style="stroke:#000000;stroke-width:0.8;" x="1652.320702" xlink:href="#m5b6c892cef" y="640.8"/>
      </g>
     </g>
     <g id="text_13">
      <!-- 11-25 -->
      <g transform="translate(1643.998386 673.719883)rotate(-45)scale(0.1 -0.1)">
       <use xlink:href="#DejaVuSans-49"/>
       <use x="63.623047" xlink:href="#DejaVuSans-49"/>
       <use x="127.246094" xlink:href="#DejaVuSans-45"/>
       <use x="163.330078" xlink:href="#DejaVuSans-50"/>
       <use x="226.953125" xlink:href="#DejaVuSans-53"/>
      </g>
     </g>
    </g>
    <g id="xtick_14">
     <g id="line2d_14">
      <g>
       <use style="stroke:#000000;stroke-width:0.8;" x="1761.173184" xlink:href="#m5b6c892cef" y="640.8"/>
      </g>
     </g>
     <g id="text_14">
      <!-- 11-27 -->
      <g transform="translate(1752.850869 673.719883)rotate(-45)scale(0.1 -0.1)">
       <use xlink:href="#DejaVuSans-49"/>
       <use x="63.623047" xlink:href="#DejaVuSans-49"/>
       <use x="127.246094" xlink:href="#DejaVuSans-45"/>
       <use x="163.330078" xlink:href="#DejaVuSans-50"/>
       <use x="226.953125" xlink:href="#DejaVuSans-55"/>
      </g>
     </g>
    </g>
    <g id="xtick_15">
     <g id="line2d_15">
      <g>
       <use style="stroke:#000000;stroke-width:0.8;" x="1870.025667" xlink:href="#m5b6c892cef" y="640.8"/>
      </g>
     </g>
     <g id="text_15">
      <!-- 11-29 -->
      <g transform="translate(1861.703352 673.719883)rotate(-45)scale(0.1 -0.1)">
       <use xlink:href="#DejaVuSans-49"/>
       <use x="63.623047" xlink:href="#DejaVuSans-49"/>
       <use x="127.246094" xlink:href="#DejaVuSans-45"/>
       <use x="163.330078" xlink:href="#DejaVuSans-50"/>
       <use x="226.953125" xlink:href="#DejaVuSans-57"/>
      </g>
     </g>
    </g>
    <g id="text_16">
     <!-- Year 2013 -->
     <g transform="translate(1082.098438 686.788882)scale(0.1 -0.1)">
      <defs>
       <path d="M -0.203125 72.90625 
L 10.40625 72.90625 
L 30.609375 42.921875 
L 50.6875 72.90625 
L 61.28125 72.90625 
L 35.5 34.71875 
L 35.5 0 
L 25.59375 0 
L 25.59375 34.71875 
z
" id="DejaVuSans-89"/>
       <path d="M 56.203125 29.59375 
L 56.203125 25.203125 
L 14.890625 25.203125 
Q 15.484375 15.921875 20.484375 11.0625 
Q 25.484375 6.203125 34.421875 6.203125 
Q 39.59375 6.203125 44.453125 7.46875 
Q 49.3125 8.734375 54.109375 11.28125 
L 54.109375 2.78125 
Q 49.265625 0.734375 44.1875 -0.34375 
Q 39.109375 -1.421875 33.890625 -1.421875 
Q 20.796875 -1.421875 13.15625 6.1875 
Q 5.515625 13.8125 5.515625 26.8125 
Q 5.515625 40.234375 12.765625 48.109375 
Q 20.015625 56 32.328125 56 
Q 43.359375 56 49.78125 48.890625 
Q 56.203125 41.796875 56.203125 29.59375 
z
M 47.21875 32.234375 
Q 47.125 39.59375 43.09375 43.984375 
Q 39.0625 48.390625 32.421875 48.390625 
Q 24.90625 48.390625 20.390625 44.140625 
Q 15.875 39.890625 15.1875 32.171875 
z
" id="DejaVuSans-101"/>
       <path d="M 34.28125 27.484375 
Q 23.390625 27.484375 19.1875 25 
Q 14.984375 22.515625 14.984375 16.5 
Q 14.984375 11.71875 18.140625 8.90625 
Q 21.296875 6.109375 26.703125 6.109375 
Q 34.1875 6.109375 38.703125 11.40625 
Q 43.21875 16.703125 43.21875 25.484375 
L 43.21875 27.484375 
z
M 52.203125 31.203125 
L 52.203125 0 
L 43.21875 0 
L 43.21875 8.296875 
Q 40.140625 3.328125 35.546875 0.953125 
Q 30.953125 -1.421875 24.3125 -1.421875 
Q 15.921875 -1.421875 10.953125 3.296875 
Q 6 8.015625 6 15.921875 
Q 6 25.140625 12.171875 29.828125 
Q 18.359375 34.515625 30.609375 34.515625 
L 43.21875 34.515625 
L 43.21875 35.40625 
Q 43.21875 41.609375 39.140625 45 
Q 35.0625 48.390625 27.6875 48.390625 
Q 23 48.390625 18.546875 47.265625 
Q 14.109375 46.140625 10.015625 43.890625 
L 10.015625 52.203125 
Q 14.9375 54.109375 19.578125 55.046875 
Q 24.21875 56 28.609375 56 
Q 40.484375 56 46.34375 49.84375 
Q 52.203125 43.703125 52.203125 31.203125 
z
" id="DejaVuSans-97"/>
       <path d="M 41.109375 46.296875 
Q 39.59375 47.171875 37.8125 47.578125 
Q 36.03125 48 33.890625 48 
Q 26.265625 48 22.1875 43.046875 
Q 18.109375 38.09375 18.109375 28.8125 
L 18.109375 0 
L 9.078125 0 
L 9.078125 54.6875 
L 18.109375 54.6875 
L 18.109375 46.1875 
Q 20.953125 51.171875 25.484375 53.578125 
Q 30.03125 56 36.53125 56 
Q 37.453125 56 38.578125 55.875 
Q 39.703125 55.765625 41.0625 55.515625 
z
" id="DejaVuSans-114"/>
       <path id="DejaVuSans-32"/>
      </defs>
      <use xlink:href="#DejaVuSans-89"/>
      <use x="47.833984" xlink:href="#DejaVuSans-101"/>
      <use x="109.357422" xlink:href="#DejaVuSans-97"/>
      <use x="170.636719" xlink:href="#DejaVuSans-114"/>
      <use x="211.75" xlink:href="#DejaVuSans-32"/>
      <use x="243.537109" xlink:href="#DejaVuSans-50"/>
      <use x="307.160156" xlink:href="#DejaVuSans-48"/>
      <use x="370.783203" xlink:href="#DejaVuSans-49"/>
      <use x="434.40625" xlink:href="#DejaVuSans-51"/>
     </g>
    </g>
   </g>
   <g id="matplotlib.axis_2">
    <g id="ytick_1">
     <g id="line2d_16">
      <defs>
       <path d="M 0 0 
L -3.5 0 
" id="m566af82baa" style="stroke:#000000;stroke-width:0.8;"/>
      </defs>
      <g>
       <use style="stroke:#000000;stroke-width:0.8;" x="270" xlink:href="#m566af82baa" y="582.939731"/>
      </g>
     </g>
     <g id="text_17">
      <!-- 0.0 -->
      <g transform="translate(247.096875 586.738949)scale(0.1 -0.1)">
       <defs>
        <path d="M 10.6875 12.40625 
L 21 12.40625 
L 21 0 
L 10.6875 0 
z
" id="DejaVuSans-46"/>
       </defs>
       <use xlink:href="#DejaVuSans-48"/>
       <use x="63.623047" xlink:href="#DejaVuSans-46"/>
       <use x="95.410156" xlink:href="#DejaVuSans-48"/>
      </g>
     </g>
    </g>
    <g id="ytick_2">
     <g id="line2d_17">
      <g>
       <use style="stroke:#000000;stroke-width:0.8;" x="270" xlink:href="#m566af82baa" y="487.90835"/>
      </g>
     </g>
     <g id="text_18">
      <!-- 0.2 -->
      <g transform="translate(247.096875 491.707569)scale(0.1 -0.1)">
       <use xlink:href="#DejaVuSans-48"/>
       <use x="63.623047" xlink:href="#DejaVuSans-46"/>
       <use x="95.410156" xlink:href="#DejaVuSans-50"/>
      </g>
     </g>
    </g>
    <g id="ytick_3">
     <g id="line2d_18">
      <g>
       <use style="stroke:#000000;stroke-width:0.8;" x="270" xlink:href="#m566af82baa" y="392.876969"/>
      </g>
     </g>
     <g id="text_19">
      <!-- 0.4 -->
      <g transform="translate(247.096875 396.676188)scale(0.1 -0.1)">
       <defs>
        <path d="M 37.796875 64.3125 
L 12.890625 25.390625 
L 37.796875 25.390625 
z
M 35.203125 72.90625 
L 47.609375 72.90625 
L 47.609375 25.390625 
L 58.015625 25.390625 
L 58.015625 17.1875 
L 47.609375 17.1875 
L 47.609375 0 
L 37.796875 0 
L 37.796875 17.1875 
L 4.890625 17.1875 
L 4.890625 26.703125 
z
" id="DejaVuSans-52"/>
       </defs>
       <use xlink:href="#DejaVuSans-48"/>
       <use x="63.623047" xlink:href="#DejaVuSans-46"/>
       <use x="95.410156" xlink:href="#DejaVuSans-52"/>
      </g>
     </g>
    </g>
    <g id="ytick_4">
     <g id="line2d_19">
      <g>
       <use style="stroke:#000000;stroke-width:0.8;" x="270" xlink:href="#m566af82baa" y="297.845589"/>
      </g>
     </g>
     <g id="text_20">
      <!-- 0.6 -->
      <g transform="translate(247.096875 301.644807)scale(0.1 -0.1)">
       <defs>
        <path d="M 33.015625 40.375 
Q 26.375 40.375 22.484375 35.828125 
Q 18.609375 31.296875 18.609375 23.390625 
Q 18.609375 15.53125 22.484375 10.953125 
Q 26.375 6.390625 33.015625 6.390625 
Q 39.65625 6.390625 43.53125 10.953125 
Q 47.40625 15.53125 47.40625 23.390625 
Q 47.40625 31.296875 43.53125 35.828125 
Q 39.65625 40.375 33.015625 40.375 
z
M 52.59375 71.296875 
L 52.59375 62.3125 
Q 48.875 64.0625 45.09375 64.984375 
Q 41.3125 65.921875 37.59375 65.921875 
Q 27.828125 65.921875 22.671875 59.328125 
Q 17.53125 52.734375 16.796875 39.40625 
Q 19.671875 43.65625 24.015625 45.921875 
Q 28.375 48.1875 33.59375 48.1875 
Q 44.578125 48.1875 50.953125 41.515625 
Q 57.328125 34.859375 57.328125 23.390625 
Q 57.328125 12.15625 50.6875 5.359375 
Q 44.046875 -1.421875 33.015625 -1.421875 
Q 20.359375 -1.421875 13.671875 8.265625 
Q 6.984375 17.96875 6.984375 36.375 
Q 6.984375 53.65625 15.1875 63.9375 
Q 23.390625 74.21875 37.203125 74.21875 
Q 40.921875 74.21875 44.703125 73.484375 
Q 48.484375 72.75 52.59375 71.296875 
z
" id="DejaVuSans-54"/>
       </defs>
       <use xlink:href="#DejaVuSans-48"/>
       <use x="63.623047" xlink:href="#DejaVuSans-46"/>
       <use x="95.410156" xlink:href="#DejaVuSans-54"/>
      </g>
     </g>
    </g>
    <g id="ytick_5">
     <g id="line2d_20">
      <g>
       <use style="stroke:#000000;stroke-width:0.8;" x="270" xlink:href="#m566af82baa" y="202.814208"/>
      </g>
     </g>
     <g id="text_21">
      <!-- 0.8 -->
      <g transform="translate(247.096875 206.613427)scale(0.1 -0.1)">
       <defs>
        <path d="M 31.78125 34.625 
Q 24.75 34.625 20.71875 30.859375 
Q 16.703125 27.09375 16.703125 20.515625 
Q 16.703125 13.921875 20.71875 10.15625 
Q 24.75 6.390625 31.78125 6.390625 
Q 38.8125 6.390625 42.859375 10.171875 
Q 46.921875 13.96875 46.921875 20.515625 
Q 46.921875 27.09375 42.890625 30.859375 
Q 38.875 34.625 31.78125 34.625 
z
M 21.921875 38.8125 
Q 15.578125 40.375 12.03125 44.71875 
Q 8.5 49.078125 8.5 55.328125 
Q 8.5 64.0625 14.71875 69.140625 
Q 20.953125 74.21875 31.78125 74.21875 
Q 42.671875 74.21875 48.875 69.140625 
Q 55.078125 64.0625 55.078125 55.328125 
Q 55.078125 49.078125 51.53125 44.71875 
Q 48 40.375 41.703125 38.8125 
Q 48.828125 37.15625 52.796875 32.3125 
Q 56.78125 27.484375 56.78125 20.515625 
Q 56.78125 9.90625 50.3125 4.234375 
Q 43.84375 -1.421875 31.78125 -1.421875 
Q 19.734375 -1.421875 13.25 4.234375 
Q 6.78125 9.90625 6.78125 20.515625 
Q 6.78125 27.484375 10.78125 32.3125 
Q 14.796875 37.15625 21.921875 38.8125 
z
M 18.3125 54.390625 
Q 18.3125 48.734375 21.84375 45.5625 
Q 25.390625 42.390625 31.78125 42.390625 
Q 38.140625 42.390625 41.71875 45.5625 
Q 45.3125 48.734375 45.3125 54.390625 
Q 45.3125 60.0625 41.71875 63.234375 
Q 38.140625 66.40625 31.78125 66.40625 
Q 25.390625 66.40625 21.84375 63.234375 
Q 18.3125 60.0625 18.3125 54.390625 
z
" id="DejaVuSans-56"/>
       </defs>
       <use xlink:href="#DejaVuSans-48"/>
       <use x="63.623047" xlink:href="#DejaVuSans-46"/>
       <use x="95.410156" xlink:href="#DejaVuSans-56"/>
      </g>
     </g>
    </g>
    <g id="ytick_6">
     <g id="line2d_21">
      <g>
       <use style="stroke:#000000;stroke-width:0.8;" x="270" xlink:href="#m566af82baa" y="107.782827"/>
      </g>
     </g>
     <g id="text_22">
      <!-- 1.0 -->
      <g transform="translate(247.096875 111.582046)scale(0.1 -0.1)">
       <use xlink:href="#DejaVuSans-49"/>
       <use x="63.623047" xlink:href="#DejaVuSans-46"/>
       <use x="95.410156" xlink:href="#DejaVuSans-48"/>
      </g>
     </g>
    </g>
    <g id="text_23">
     <!-- Power output [normalized] -->
     <g transform="translate(241.017188 430.06875)rotate(-90)scale(0.1 -0.1)">
      <defs>
       <path d="M 19.671875 64.796875 
L 19.671875 37.40625 
L 32.078125 37.40625 
Q 38.96875 37.40625 42.71875 40.96875 
Q 46.484375 44.53125 46.484375 51.125 
Q 46.484375 57.671875 42.71875 61.234375 
Q 38.96875 64.796875 32.078125 64.796875 
z
M 9.8125 72.90625 
L 32.078125 72.90625 
Q 44.34375 72.90625 50.609375 67.359375 
Q 56.890625 61.8125 56.890625 51.125 
Q 56.890625 40.328125 50.609375 34.8125 
Q 44.34375 29.296875 32.078125 29.296875 
L 19.671875 29.296875 
L 19.671875 0 
L 9.8125 0 
z
" id="DejaVuSans-80"/>
       <path d="M 30.609375 48.390625 
Q 23.390625 48.390625 19.1875 42.75 
Q 14.984375 37.109375 14.984375 27.296875 
Q 14.984375 17.484375 19.15625 11.84375 
Q 23.34375 6.203125 30.609375 6.203125 
Q 37.796875 6.203125 41.984375 11.859375 
Q 46.1875 17.53125 46.1875 27.296875 
Q 46.1875 37.015625 41.984375 42.703125 
Q 37.796875 48.390625 30.609375 48.390625 
z
M 30.609375 56 
Q 42.328125 56 49.015625 48.375 
Q 55.71875 40.765625 55.71875 27.296875 
Q 55.71875 13.875 49.015625 6.21875 
Q 42.328125 -1.421875 30.609375 -1.421875 
Q 18.84375 -1.421875 12.171875 6.21875 
Q 5.515625 13.875 5.515625 27.296875 
Q 5.515625 40.765625 12.171875 48.375 
Q 18.84375 56 30.609375 56 
z
" id="DejaVuSans-111"/>
       <path d="M 4.203125 54.6875 
L 13.1875 54.6875 
L 24.421875 12.015625 
L 35.59375 54.6875 
L 46.1875 54.6875 
L 57.421875 12.015625 
L 68.609375 54.6875 
L 77.59375 54.6875 
L 63.28125 0 
L 52.6875 0 
L 40.921875 44.828125 
L 29.109375 0 
L 18.5 0 
z
" id="DejaVuSans-119"/>
       <path d="M 8.5 21.578125 
L 8.5 54.6875 
L 17.484375 54.6875 
L 17.484375 21.921875 
Q 17.484375 14.15625 20.5 10.265625 
Q 23.53125 6.390625 29.59375 6.390625 
Q 36.859375 6.390625 41.078125 11.03125 
Q 45.3125 15.671875 45.3125 23.6875 
L 45.3125 54.6875 
L 54.296875 54.6875 
L 54.296875 0 
L 45.3125 0 
L 45.3125 8.40625 
Q 42.046875 3.421875 37.71875 1 
Q 33.40625 -1.421875 27.6875 -1.421875 
Q 18.265625 -1.421875 13.375 4.4375 
Q 8.5 10.296875 8.5 21.578125 
z
M 31.109375 56 
z
" id="DejaVuSans-117"/>
       <path d="M 18.3125 70.21875 
L 18.3125 54.6875 
L 36.8125 54.6875 
L 36.8125 47.703125 
L 18.3125 47.703125 
L 18.3125 18.015625 
Q 18.3125 11.328125 20.140625 9.421875 
Q 21.96875 7.515625 27.59375 7.515625 
L 36.8125 7.515625 
L 36.8125 0 
L 27.59375 0 
Q 17.1875 0 13.234375 3.875 
Q 9.28125 7.765625 9.28125 18.015625 
L 9.28125 47.703125 
L 2.6875 47.703125 
L 2.6875 54.6875 
L 9.28125 54.6875 
L 9.28125 70.21875 
z
" id="DejaVuSans-116"/>
       <path d="M 18.109375 8.203125 
L 18.109375 -20.796875 
L 9.078125 -20.796875 
L 9.078125 54.6875 
L 18.109375 54.6875 
L 18.109375 46.390625 
Q 20.953125 51.265625 25.265625 53.625 
Q 29.59375 56 35.59375 56 
Q 45.5625 56 51.78125 48.09375 
Q 58.015625 40.1875 58.015625 27.296875 
Q 58.015625 14.40625 51.78125 6.484375 
Q 45.5625 -1.421875 35.59375 -1.421875 
Q 29.59375 -1.421875 25.265625 0.953125 
Q 20.953125 3.328125 18.109375 8.203125 
z
M 48.6875 27.296875 
Q 48.6875 37.203125 44.609375 42.84375 
Q 40.53125 48.484375 33.40625 48.484375 
Q 26.265625 48.484375 22.1875 42.84375 
Q 18.109375 37.203125 18.109375 27.296875 
Q 18.109375 17.390625 22.1875 11.75 
Q 26.265625 6.109375 33.40625 6.109375 
Q 40.53125 6.109375 44.609375 11.75 
Q 48.6875 17.390625 48.6875 27.296875 
z
" id="DejaVuSans-112"/>
       <path d="M 8.59375 75.984375 
L 29.296875 75.984375 
L 29.296875 69 
L 17.578125 69 
L 17.578125 -6.203125 
L 29.296875 -6.203125 
L 29.296875 -13.1875 
L 8.59375 -13.1875 
z
" id="DejaVuSans-91"/>
       <path d="M 54.890625 33.015625 
L 54.890625 0 
L 45.90625 0 
L 45.90625 32.71875 
Q 45.90625 40.484375 42.875 44.328125 
Q 39.84375 48.1875 33.796875 48.1875 
Q 26.515625 48.1875 22.3125 43.546875 
Q 18.109375 38.921875 18.109375 30.90625 
L 18.109375 0 
L 9.078125 0 
L 9.078125 54.6875 
L 18.109375 54.6875 
L 18.109375 46.1875 
Q 21.34375 51.125 25.703125 53.5625 
Q 30.078125 56 35.796875 56 
Q 45.21875 56 50.046875 50.171875 
Q 54.890625 44.34375 54.890625 33.015625 
z
" id="DejaVuSans-110"/>
       <path d="M 52 44.1875 
Q 55.375 50.25 60.0625 53.125 
Q 64.75 56 71.09375 56 
Q 79.640625 56 84.28125 50.015625 
Q 88.921875 44.046875 88.921875 33.015625 
L 88.921875 0 
L 79.890625 0 
L 79.890625 32.71875 
Q 79.890625 40.578125 77.09375 44.375 
Q 74.3125 48.1875 68.609375 48.1875 
Q 61.625 48.1875 57.5625 43.546875 
Q 53.515625 38.921875 53.515625 30.90625 
L 53.515625 0 
L 44.484375 0 
L 44.484375 32.71875 
Q 44.484375 40.625 41.703125 44.40625 
Q 38.921875 48.1875 33.109375 48.1875 
Q 26.21875 48.1875 22.15625 43.53125 
Q 18.109375 38.875 18.109375 30.90625 
L 18.109375 0 
L 9.078125 0 
L 9.078125 54.6875 
L 18.109375 54.6875 
L 18.109375 46.1875 
Q 21.1875 51.21875 25.484375 53.609375 
Q 29.78125 56 35.6875 56 
Q 41.65625 56 45.828125 52.96875 
Q 50 49.953125 52 44.1875 
z
" id="DejaVuSans-109"/>
       <path d="M 9.421875 75.984375 
L 18.40625 75.984375 
L 18.40625 0 
L 9.421875 0 
z
" id="DejaVuSans-108"/>
       <path d="M 9.421875 54.6875 
L 18.40625 54.6875 
L 18.40625 0 
L 9.421875 0 
z
M 9.421875 75.984375 
L 18.40625 75.984375 
L 18.40625 64.59375 
L 9.421875 64.59375 
z
" id="DejaVuSans-105"/>
       <path d="M 5.515625 54.6875 
L 48.1875 54.6875 
L 48.1875 46.484375 
L 14.40625 7.171875 
L 48.1875 7.171875 
L 48.1875 0 
L 4.296875 0 
L 4.296875 8.203125 
L 38.09375 47.515625 
L 5.515625 47.515625 
z
" id="DejaVuSans-122"/>
       <path d="M 45.40625 46.390625 
L 45.40625 75.984375 
L 54.390625 75.984375 
L 54.390625 0 
L 45.40625 0 
L 45.40625 8.203125 
Q 42.578125 3.328125 38.25 0.953125 
Q 33.9375 -1.421875 27.875 -1.421875 
Q 17.96875 -1.421875 11.734375 6.484375 
Q 5.515625 14.40625 5.515625 27.296875 
Q 5.515625 40.1875 11.734375 48.09375 
Q 17.96875 56 27.875 56 
Q 33.9375 56 38.25 53.625 
Q 42.578125 51.265625 45.40625 46.390625 
z
M 14.796875 27.296875 
Q 14.796875 17.390625 18.875 11.75 
Q 22.953125 6.109375 30.078125 6.109375 
Q 37.203125 6.109375 41.296875 11.75 
Q 45.40625 17.390625 45.40625 27.296875 
Q 45.40625 37.203125 41.296875 42.84375 
Q 37.203125 48.484375 30.078125 48.484375 
Q 22.953125 48.484375 18.875 42.84375 
Q 14.796875 37.203125 14.796875 27.296875 
z
" id="DejaVuSans-100"/>
       <path d="M 30.421875 75.984375 
L 30.421875 -13.1875 
L 9.71875 -13.1875 
L 9.71875 -6.203125 
L 21.390625 -6.203125 
L 21.390625 69 
L 9.71875 69 
L 9.71875 75.984375 
z
" id="DejaVuSans-93"/>
      </defs>
      <use xlink:href="#DejaVuSans-80"/>
      <use x="56.677734" xlink:href="#DejaVuSans-111"/>
      <use x="117.859375" xlink:href="#DejaVuSans-119"/>
      <use x="199.646484" xlink:href="#DejaVuSans-101"/>
      <use x="261.169922" xlink:href="#DejaVuSans-114"/>
      <use x="302.283203" xlink:href="#DejaVuSans-32"/>
      <use x="334.070312" xlink:href="#DejaVuSans-111"/>
      <use x="395.251953" xlink:href="#DejaVuSans-117"/>
      <use x="458.630859" xlink:href="#DejaVuSans-116"/>
      <use x="497.839844" xlink:href="#DejaVuSans-112"/>
      <use x="561.316406" xlink:href="#DejaVuSans-117"/>
      <use x="624.695312" xlink:href="#DejaVuSans-116"/>
      <use x="663.904297" xlink:href="#DejaVuSans-32"/>
      <use x="695.691406" xlink:href="#DejaVuSans-91"/>
      <use x="734.705078" xlink:href="#DejaVuSans-110"/>
      <use x="798.083984" xlink:href="#DejaVuSans-111"/>
      <use x="859.265625" xlink:href="#DejaVuSans-114"/>
      <use x="898.628906" xlink:href="#DejaVuSans-109"/>
      <use x="996.041016" xlink:href="#DejaVuSans-97"/>
      <use x="1057.320312" xlink:href="#DejaVuSans-108"/>
      <use x="1085.103516" xlink:href="#DejaVuSans-105"/>
      <use x="1112.886719" xlink:href="#DejaVuSans-122"/>
      <use x="1165.376953" xlink:href="#DejaVuSans-101"/>
      <use x="1226.900391" xlink:href="#DejaVuSans-100"/>
      <use x="1290.376953" xlink:href="#DejaVuSans-93"/>
     </g>
    </g>
   </g>
   <g id="line2d_22">
    <path clip-path="url(#pe455e73790)" d="M 346.090909 503.4866 
L 348.207485 552.53044 
L 350.324061 564.391857 
L 352.440637 565.724025 
L 354.557213 552.107733 
L 356.673789 509.444208 
L 358.790365 430.457763 
L 360.906941 474.679754 
L 363.023518 548.333258 
L 365.140094 582.939731 
L 367.25667 574.370306 
L 369.373246 573.17904 
L 371.489822 576.731487 
L 373.606398 566.680453 
L 377.83955 582.939731 
L 384.189278 582.939731 
L 386.305854 567.871718 
L 388.42243 470.469762 
L 390.539006 361.56932 
L 392.655582 347.842014 
L 394.772158 417.520364 
L 396.888734 435.29114 
L 399.00531 374.745825 
L 401.121886 404.800724 
L 403.238463 229.466956 
L 405.355039 235.863069 
L 407.471615 230.598445 
L 409.588191 284.585396 
L 411.704767 201.205359 
L 413.821343 212.379343 
L 415.937919 271.080118 
L 418.054495 308.359466 
L 420.171071 322.816902 
L 422.287647 410.41547 
L 424.404223 390.748917 
L 426.520799 488.330203 
L 428.637375 371.859461 
L 430.753951 380.646645 
L 432.870527 316.894733 
L 434.987103 374.660429 
L 437.103679 381.261491 
L 439.220255 362.828901 
L 441.336831 492.651209 
L 443.453408 469.551762 
L 445.569984 471.349334 
L 447.68656 419.668058 
L 449.803136 471.579902 
L 451.919712 488.680324 
L 454.036288 452.003014 
L 456.152864 439.881141 
L 458.26944 438.049411 
L 460.386016 360.843459 
L 462.502592 344.60553 
L 464.619168 443.066389 
L 466.735744 458.232606 
L 468.85232 298.863501 
L 470.968896 197.849321 
L 473.085472 161.236057 
L 475.202048 144.165523 
L 477.318624 117.048224 
L 479.4352 117.479471 
L 481.551776 125.754282 
L 483.668353 132.05646 
L 485.784929 120.882476 
L 487.901505 155.527377 
L 490.018081 146.505356 
L 492.134657 134.374944 
L 494.251233 119.353899 
L 496.367809 129.071892 
L 498.484385 134.27247 
L 500.600961 172.328916 
L 502.717537 289.265062 
L 504.834113 431.555093 
L 506.950689 451.862111 
L 509.067265 439.804286 
L 511.183841 417.272718 
L 513.300417 431.964991 
L 515.416993 406.995385 
L 517.533569 361.799887 
L 519.650145 213.015538 
L 521.766721 122.607463 
L 523.883298 131.642293 
L 525.999874 111.9672 
L 528.11645 112.782726 
L 530.233026 119.89189 
L 532.349602 116.38641 
L 534.466178 111.6 
L 536.582754 114.879182 
L 538.69933 123.559621 
L 540.815906 130.096637 
L 542.932482 176.325419 
L 545.049058 200.658829 
L 547.165634 178.605475 
L 549.28221 308.999931 
L 551.398786 365.924483 
L 553.515362 501.899527 
L 555.631938 543.850001 
L 557.748514 574.703347 
L 559.86509 582.939731 
L 564.098243 582.939731 
L 566.214819 560.339847 
L 568.331395 484.846072 
L 570.447971 449.368567 
L 572.564547 440.948583 
L 574.681123 434.620787 
L 576.797699 418.574997 
L 578.914275 427.349371 
L 581.030851 442.635142 
L 583.147427 412.665638 
L 585.264003 335.822616 
L 587.380579 364.963785 
L 589.497155 329.242903 
L 591.613731 333.747509 
L 593.730307 262.809577 
L 595.846883 284.380447 
L 597.963459 335.182151 
L 602.196611 505.665463 
L 604.313188 527.65477 
L 606.429764 544.43069 
L 608.54634 556.637957 
L 610.662916 566.54809 
L 612.779492 551.364794 
L 614.896068 554.507343 
L 617.012644 571.923728 
L 619.12922 538.53414 
L 621.245796 499.739024 
L 623.362372 483.018611 
L 625.478948 474.765149 
L 627.595524 394.92048 
L 629.7121 284.440224 
L 631.828676 484.662472 
L 633.945252 582.939731 
L 636.061828 582.939731 
L 638.178404 542.77402 
L 640.29498 368.063637 
L 642.411556 450.23106 
L 644.528133 488.868194 
L 646.644709 490.204631 
L 648.761285 551.215352 
L 650.877861 542.893573 
L 652.994437 519.747159 
L 655.111013 372.141266 
L 657.227589 340.335761 
L 659.344165 469.863455 
L 661.460741 518.419261 
L 663.577317 302.211 
L 665.693893 299.354525 
L 667.810469 464.42804 
L 669.927045 212.759352 
L 672.043621 428.519288 
L 674.160197 456.067833 
L 676.276773 214.655129 
L 678.393349 279.794716 
L 680.509925 319.153441 
L 682.626501 146.07838 
L 684.743078 388.643921 
L 686.859654 291.194997 
L 688.97623 308.453401 
L 691.092806 223.066573 
L 693.209382 155.779293 
L 695.325958 157.043145 
L 697.442534 169.775594 
L 699.55911 205.735583 
L 701.675686 205.919183 
L 703.792262 348.315959 
L 705.908838 239.018428 
L 708.025414 171.709799 
L 710.14199 137.197261 
L 714.375142 174.429642 
L 716.491718 199.279694 
L 718.608294 254.859268 
L 720.72487 293.244486 
L 722.841446 388.430432 
L 724.958023 359.220947 
L 727.074599 433.331317 
L 729.191175 368.998717 
L 731.307751 385.830144 
L 733.424327 394.967448 
L 735.540903 381.009575 
L 737.657479 429.117055 
L 739.774055 399.083505 
L 741.890631 375.100216 
L 744.007207 437.054555 
L 746.123783 536.843311 
L 748.240359 536.083293 
L 750.356935 458.394857 
L 752.473511 483.859756 
L 754.590087 505.439165 
L 756.706663 501.493899 
L 758.823239 460.803006 
L 760.939815 449.411264 
L 765.172968 337.188942 
L 767.289544 350.284322 
L 769.40612 286.942308 
L 771.522696 364.639283 
L 773.639272 345.771177 
L 775.755848 300.605567 
L 777.872424 274.107384 
L 779.989 294.252151 
L 782.105576 309.102406 
L 784.222152 350.826582 
L 786.338728 343.042795 
L 788.455304 292.053221 
L 790.57188 296.984803 
L 792.688456 308.83768 
L 794.805032 323.363432 
L 796.921608 350.373987 
L 799.038184 227.477244 
L 801.15476 263.723308 
L 803.271336 386.08633 
L 805.387913 448.151683 
L 807.504489 462.2163 
L 809.621065 483.928072 
L 811.737641 468.697808 
L 813.854217 459.325666 
L 815.970793 441.57197 
L 818.087369 393.118638 
L 820.203945 414.083201 
L 822.320521 437.063094 
L 824.437097 442.144119 
L 828.670249 256.942915 
L 830.786825 194.211478 
L 832.903401 249.193286 
L 835.019977 237.383107 
L 837.136553 238.062 
L 839.253129 313.671058 
L 841.369705 401.632556 
L 843.486281 478.99222 
L 845.602858 501.169397 
L 847.719434 506.869537 
L 849.83601 486.327682 
L 851.952586 498.167749 
L 854.069162 512.928339 
L 856.185738 486.370379 
L 858.302314 479.466164 
L 860.41889 480.601922 
L 862.535466 450.888604 
L 864.652042 454.001265 
L 866.768618 480.290229 
L 868.885194 499.457219 
L 871.00177 268.757364 
L 873.118346 224.458518 
L 875.234922 344.865986 
L 877.351498 391.461968 
L 879.468074 384.374152 
L 881.58465 450.482976 
L 883.701226 471.118767 
L 885.817803 522.142499 
L 887.934379 576.227655 
L 890.050955 572.406212 
L 892.167531 551.390412 
L 894.284107 578.093544 
L 896.400683 582.939731 
L 900.633835 582.939731 
L 904.866987 526.937449 
L 906.983563 530.912603 
L 909.100139 502.612578 
L 911.216715 479.397848 
L 913.333291 476.455977 
L 915.449867 440.209913 
L 919.683019 327.500838 
L 921.799595 235.000576 
L 923.916171 315.908417 
L 926.032748 391.572982 
L 928.149324 426.153836 
L 930.2659 361.518082 
L 932.382476 283.846726 
L 934.499052 337.163324 
L 936.615628 402.554826 
L 938.732204 437.87862 
L 940.84878 482.109151 
L 942.965356 517.919698 
L 945.081932 533.218278 
L 947.198508 565.100638 
L 949.315084 580.283935 
L 951.43166 582.939731 
L 962.01454 582.939731 
L 964.131116 581.513628 
L 966.247693 567.312378 
L 968.364269 523.478936 
L 970.480845 437.178378 
L 972.597421 342.163222 
L 974.713997 427.870283 
L 976.830573 443.860565 
L 978.947149 358.896445 
L 981.063725 323.653776 
L 983.180301 462.566421 
L 985.296877 482.971644 
L 987.413453 487.484789 
L 989.530029 537.838167 
L 991.646605 512.117083 
L 993.763181 464.846477 
L 995.879757 342.709753 
L 997.996333 308.29115 
L 1000.112909 391.124656 
L 1002.229485 427.392069 
L 1004.346061 454.342847 
L 1006.462638 558.05979 
L 1008.579214 582.939731 
L 1010.69579 575.322464 
L 1014.928942 347.995726 
L 1017.045518 312.048546 
L 1019.162094 424.147045 
L 1021.27867 446.840864 
L 1023.395246 506.993361 
L 1025.511822 556.808748 
L 1027.628398 499.273619 
L 1029.744974 432.063195 
L 1031.86155 434.227968 
L 1033.978126 441.367021 
L 1036.094702 436.845336 
L 1038.211278 394.356871 
L 1040.327854 432.306572 
L 1042.44443 424.778971 
L 1044.561006 455.640856 
L 1046.677583 440.312388 
L 1048.794159 396.547262 
L 1050.910735 421.337537 
L 1053.027311 435.705308 
L 1055.143887 482.510509 
L 1057.260463 497.689535 
L 1059.377039 484.235495 
L 1061.493615 388.234023 
L 1063.610191 407.132018 
L 1065.726767 448.296855 
L 1067.843343 530.246519 
L 1069.959919 577.79466 
L 1072.076495 568.678704 
L 1074.193071 424.548403 
L 1076.309647 457.160894 
L 1078.426223 475.333028 
L 1080.542799 431.721614 
L 1082.659375 325.207972 
L 1084.775951 211.896859 
L 1086.892528 202.699778 
L 1089.009104 143.764165 
L 1091.12568 137.22715 
L 1093.242256 139.848788 
L 1095.358832 141.919625 
L 1097.475408 153.939023 
L 1099.591984 173.72086 
L 1101.70856 212.07192 
L 1103.825136 216.687539 
L 1105.941712 284.149879 
L 1108.058288 426.469799 
L 1110.174864 540.664754 
L 1112.29144 578.353999 
L 1114.408016 571.906649 
L 1116.524592 553.422822 
L 1118.641168 548.008756 
L 1120.757744 529.998873 
L 1122.87432 484.910119 
L 1127.107472 363.383971 
L 1129.224049 280.324167 
L 1131.340625 328.803117 
L 1133.457201 324.3284 
L 1135.573777 384.78832 
L 1137.690353 394.211699 
L 1139.806929 376.923407 
L 1141.923505 398.784621 
L 1144.040081 425.671352 
L 1146.156657 426.508227 
L 1148.273233 453.774968 
L 1150.389809 482.557476 
L 1152.506385 520.46021 
L 1154.622961 513.295539 
L 1156.739537 507.941249 
L 1158.856113 567.47463 
L 1160.972689 579.067051 
L 1163.089265 581.66734 
L 1165.205841 582.22241 
L 1167.322417 582.939731 
L 1173.672146 582.939731 
L 1175.788722 576.30878 
L 1177.905298 504.085648 
L 1180.021874 518.521735 
L 1182.13845 519.785587 
L 1184.255026 523.722313 
L 1186.371602 497.330875 
L 1188.488178 496.929517 
L 1190.604754 496.344558 
L 1194.837906 511.587631 
L 1196.954482 506.596272 
L 1199.071058 532.065441 
L 1201.187634 552.654264 
L 1203.30421 559.955568 
L 1205.420786 568.951969 
L 1207.537362 558.311707 
L 1209.653939 565.536155 
L 1211.770515 560.147707 
L 1213.887091 558.913744 
L 1216.003667 568.674435 
L 1218.120243 565.852118 
L 1222.353395 573.815236 
L 1224.469971 553.781482 
L 1226.586547 552.71404 
L 1228.703123 529.951905 
L 1230.819699 571.932268 
L 1232.936275 582.939731 
L 1237.169427 582.939731 
L 1239.286003 568.38409 
L 1241.402579 499.013164 
L 1243.519155 449.49666 
L 1245.635731 527.64196 
L 1247.752307 562.705298 
L 1249.868884 488.338743 
L 1251.98546 399.113393 
L 1254.102036 391.671187 
L 1256.218612 407.166176 
L 1258.335188 413.464084 
L 1260.451764 362.350687 
L 1262.56834 359.003189 
L 1264.684916 478.014443 
L 1266.801492 553.81991 
L 1268.918068 550.284542 
L 1271.034644 545.143741 
L 1273.15122 523.41489 
L 1275.267796 534.921916 
L 1277.384372 550.199147 
L 1279.500948 560.749744 
L 1281.617524 542.786829 
L 1283.7341 376.624523 
L 1285.850676 235.316539 
L 1287.967252 168.396459 
L 1290.083829 199.565768 
L 1292.200405 159.041396 
L 1294.316981 159.728829 
L 1296.433557 282.664 
L 1298.550133 521.484954 
L 1300.666709 517.919698 
L 1302.783285 377.085658 
L 1304.899861 259.658488 
L 1307.016437 459.581853 
L 1309.133013 531.318231 
L 1311.249589 563.661726 
L 1313.366165 521.186071 
L 1315.482741 473.228032 
L 1317.599317 501.28468 
L 1319.715893 532.671748 
L 1321.832469 552.415157 
L 1323.949045 547.611667 
L 1326.065621 481.178341 
L 1328.182197 242.246373 
L 1330.298774 241.73827 
L 1332.41535 336.437463 
L 1334.531926 413.113963 
L 1336.648502 402.734157 
L 1338.765078 334.370895 
L 1340.881654 376.167658 
L 1342.99823 439.197978 
L 1345.114806 454.611842 
L 1347.231382 488.923701 
L 1349.347958 501.438392 
L 1353.58111 336.702189 
L 1355.697686 412.26001 
L 1357.814262 431.542284 
L 1359.930838 514.994907 
L 1362.047414 573.443766 
L 1364.16399 582.649386 
L 1366.280566 581.193395 
L 1368.397142 570.292677 
L 1370.513719 556.740432 
L 1372.630295 498.88507 
L 1374.746871 437.250964 
L 1376.863447 422.5715 
L 1378.980023 367.888577 
L 1381.096599 320.378864 
L 1383.213175 350.86928 
L 1385.329751 313.231272 
L 1387.446327 225.325281 
L 1389.562903 354.255206 
L 1391.679479 413.101154 
L 1393.796055 475.815512 
L 1395.912631 475.183586 
L 1398.029207 503.32136 
L 1400.145783 498.125052 
L 1402.262359 490.153394 
L 1404.378935 483.825597 
L 1406.495511 539.285619 
L 1408.612087 465.559528 
L 1410.728664 460.580978 
L 1412.84524 507.522812 
L 1414.961816 528.717942 
L 1417.078392 517.928237 
L 1419.194968 499.529806 
L 1421.311544 434.838545 
L 1423.42812 415.355592 
L 1425.544696 405.300287 
L 1427.661272 350.403875 
L 1429.777848 314.166351 
L 1431.894424 295.57151 
L 1434.011 262.045289 
L 1436.127576 311.694155 
L 1438.244152 428.139278 
L 1440.360728 406.448855 
L 1442.477304 421.2863 
L 1444.59388 401.175691 
L 1446.710456 397.618974 
L 1448.827032 380.877212 
L 1450.943609 402.473701 
L 1453.060185 398.98103 
L 1455.176761 461.140318 
L 1457.293337 481.161262 
L 1459.409913 455.482875 
L 1461.526489 505.913109 
L 1463.643065 487.134668 
L 1465.759641 511.724264 
L 1467.876217 523.167243 
L 1469.992793 523.538713 
L 1472.109369 546.501527 
L 1474.225945 543.986634 
L 1476.342521 517.710479 
L 1478.459097 429.655046 
L 1480.575673 440.658239 
L 1482.692249 377.0515 
L 1484.808825 357.342249 
L 1486.925401 236.153413 
L 1489.041977 301.638851 
L 1491.158554 347.432117 
L 1493.27513 309.785569 
L 1495.391706 332.321406 
L 1497.508282 412.584512 
L 1499.624858 394.660024 
L 1501.741434 346.052981 
L 1503.85801 335.434067 
L 1505.974586 326.091814 
L 1508.091162 409.655451 
L 1510.207738 463.821733 
L 1512.324314 551.97537 
L 1514.44089 579.780102 
L 1516.557466 582.939731 
L 1518.674042 582.828717 
L 1520.790618 582.914112 
L 1522.907194 578.973116 
L 1525.02377 580.420567 
L 1527.140346 581.28733 
L 1529.256922 580.322363 
L 1531.373499 567.508788 
L 1533.490075 506.895156 
L 1535.606651 498.436745 
L 1537.723227 483.321765 
L 1539.839803 433.151986 
L 1541.956379 420.026718 
L 1544.072955 465.845603 
L 1546.189531 456.750996 
L 1548.306107 433.852228 
L 1550.422683 425.983045 
L 1552.539259 454.513638 
L 1554.655835 418.062625 
L 1556.772411 376.393955 
L 1558.888987 450.299376 
L 1561.005563 499.832959 
L 1563.122139 500.511852 
L 1565.238715 549.195751 
L 1567.355291 582.939731 
L 1580.054748 582.939731 
L 1582.171324 565.288508 
L 1584.2879 580.104604 
L 1586.404476 579.540995 
L 1588.521052 542.069508 
L 1590.637628 473.753214 
L 1592.754204 352.449094 
L 1594.87078 218.288702 
L 1596.987356 176.257102 
L 1601.220508 140.446555 
L 1603.337084 152.70933 
L 1605.45366 174.041093 
L 1607.570236 206.196718 
L 1609.686812 416.606634 
L 1611.803389 556.420199 
L 1613.919965 550.493761 
L 1616.036541 577.764771 
L 1618.153117 582.939731 
L 1632.969149 582.939731 
L 1635.085725 574.229403 
L 1637.202301 525.571123 
L 1639.318877 413.032838 
L 1641.435453 342.628627 
L 1643.552029 240.726335 
L 1645.668605 160.984141 
L 1647.785181 166.376858 
L 1649.901757 144.754751 
L 1652.018334 128.19232 
L 1656.251486 155.47187 
L 1658.368062 195.65039 
L 1660.484638 191.717934 
L 1662.601214 226.81543 
L 1664.71779 228.305579 
L 1666.834366 265.034126 
L 1668.950942 295.545891 
L 1671.067518 389.450907 
L 1673.184094 348.619112 
L 1675.30067 352.769327 
L 1677.417246 372.645099 
L 1679.533822 375.108755 
L 1681.650398 390.800154 
L 1685.88355 518.547354 
L 1688.000126 388.878758 
L 1690.116702 419.582663 
L 1692.233279 434.868433 
L 1694.349855 427.575669 
L 1696.466431 525.882816 
L 1698.583007 582.939731 
L 1702.816159 582.939731 
L 1704.932735 563.478126 
L 1707.049311 554.797687 
L 1709.165887 582.939731 
L 1711.282463 557.295502 
L 1713.399039 504.747462 
L 1715.515615 466.110328 
L 1717.632191 372.99522 
L 1719.748767 235.427553 
L 1721.865343 345.237456 
L 1723.981919 489.431803 
L 1726.098495 417.153164 
L 1728.215071 322.385655 
L 1730.331647 316.536073 
L 1732.448224 354.92129 
L 1734.5648 433.463679 
L 1736.681376 501.506708 
L 1738.797952 509.341733 
L 1740.914528 517.812954 
L 1743.031104 433.971782 
L 1745.14768 235.141478 
L 1747.264256 261.374935 
L 1749.380832 141.082751 
L 1751.497408 125.489556 
L 1753.613984 122.556226 
L 1755.73056 121.253946 
L 1757.847136 126.279464 
L 1759.963712 123.363212 
L 1762.080288 127.483538 
L 1764.196864 139.887215 
L 1766.31344 157.149889 
L 1768.430016 167.136877 
L 1770.546592 252.916524 
L 1772.663169 387.149502 
L 1774.779745 429.667855 
L 1776.896321 405.838278 
L 1779.012897 409.463311 
L 1781.129473 411.645163 
L 1783.246049 410.838177 
L 1785.362625 364.707599 
L 1787.479201 294.064282 
L 1789.595777 260.380079 
L 1791.712353 261.8318 
L 1793.828929 251.746607 
L 1795.945505 281.938139 
L 1800.178657 171.474962 
L 1802.295233 171.150459 
L 1804.411809 190.283292 
L 1806.528385 136.894108 
L 1808.644961 125.673157 
L 1810.761537 139.050341 
L 1812.878114 140.937578 
L 1814.99469 132.116237 
L 1817.111266 144.741942 
L 1819.227842 159.429945 
L 1821.344418 157.837322 
L 1823.460994 222.165652 
L 1825.57757 375.774839 
L 1829.810722 408.980828 
L 1831.927298 368.661405 
L 1834.043874 307.304833 
L 1836.16045 254.393864 
L 1838.277026 309.678825 
L 1840.393602 340.72858 
L 1842.510178 272.100593 
L 1844.626754 162.247992 
L 1846.74333 121.066076 
L 1848.859906 123.525463 
L 1850.976482 123.098486 
L 1853.093059 132.133316 
L 1855.209635 122.432402 
L 1857.326211 136.941075 
L 1859.442787 125.207752 
L 1861.559363 132.094888 
L 1863.675939 142.948639 
L 1865.792515 215.244357 
L 1867.909091 510.366478 
L 1867.909091 510.366478 
" style="fill:none;stroke:#ff0000;stroke-linecap:square;"/>
   </g>
   <g id="line2d_23">
    <path clip-path="url(#pe455e73790)" d="M 346.090909 411.669006 
L 348.207485 409.095924 
L 350.324061 408.77061 
L 352.440637 411.420008 
L 354.557213 404.974765 
L 356.673789 403.675364 
L 358.790365 420.994332 
L 360.906941 472.683256 
L 363.023518 505.102545 
L 365.140094 564.861089 
L 367.25667 582.598925 
L 369.373246 560.19096 
L 371.489822 551.25118 
L 373.606398 568.477602 
L 375.722974 592.47878 
L 377.83955 557.644222 
L 382.072702 536.332388 
L 384.189278 549.984012 
L 386.305854 591.714668 
L 388.42243 580.127726 
L 390.539006 544.466585 
L 394.772158 486.101024 
L 396.888734 377.526163 
L 399.00531 354.015316 
L 401.121886 322.724888 
L 403.238463 288.113509 
L 405.355039 274.681383 
L 407.471615 296.015966 
L 409.588191 324.671441 
L 411.704767 337.46641 
L 413.821343 336.07696 
L 418.054495 383.993515 
L 420.171071 422.067323 
L 422.287647 357.666267 
L 424.404223 310.336896 
L 426.520799 426.982409 
L 428.637375 403.251654 
L 430.753951 352.62647 
L 432.870527 327.201957 
L 434.987103 355.926766 
L 437.103679 391.671079 
L 439.220255 371.704666 
L 441.336831 334.395261 
L 443.453408 338.30668 
L 445.569984 343.278486 
L 447.68656 370.026298 
L 449.803136 365.317322 
L 451.919712 301.898556 
L 454.036288 286.445662 
L 456.152864 296.538962 
L 458.26944 297.059372 
L 460.386016 298.48695 
L 462.502592 300.473107 
L 464.619168 330.796876 
L 468.85232 394.942641 
L 470.968896 328.033117 
L 473.085472 320.910002 
L 475.202048 302.42875 
L 477.318624 277.040655 
L 479.4352 258.68458 
L 481.551776 246.371858 
L 483.668353 236.393628 
L 485.784929 229.236835 
L 487.901505 220.491228 
L 490.018081 203.97285 
L 492.134657 173.133056 
L 494.251233 202.020607 
L 496.367809 245.531341 
L 498.484385 266.552419 
L 500.600961 306.768786 
L 502.717537 340.248701 
L 504.834113 376.214412 
L 506.950689 394.489671 
L 509.067265 398.550233 
L 511.183841 397.660411 
L 513.300417 390.664502 
L 515.416993 438.197102 
L 517.533569 419.554098 
L 519.650145 387.448955 
L 521.766721 366.71596 
L 523.883298 351.794988 
L 525.999874 337.872235 
L 528.11645 327.357174 
L 530.233026 309.672283 
L 532.349602 293.477187 
L 534.466178 298.497661 
L 536.582754 311.430637 
L 538.69933 319.932827 
L 540.815906 285.527664 
L 542.932482 256.910156 
L 545.049058 249.139417 
L 547.165634 290.064156 
L 549.28221 375.173654 
L 551.398786 423.214935 
L 553.515362 458.517137 
L 555.631938 484.729592 
L 557.748514 505.398485 
L 559.86509 528.949824 
L 561.981666 537.118953 
L 564.098243 501.322981 
L 566.214819 461.764031 
L 568.331395 424.782773 
L 570.447971 427.838409 
L 572.564547 431.439085 
L 574.681123 428.91652 
L 576.797699 426.751374 
L 578.914275 426.227178 
L 581.030851 435.340207 
L 583.147427 441.309989 
L 585.264003 436.288323 
L 587.380579 428.346054 
L 589.497155 423.000444 
L 591.613731 385.195085 
L 593.730307 378.94664 
L 595.846883 351.930986 
L 597.963459 352.96811 
L 600.080035 399.523618 
L 602.196611 433.295073 
L 604.313188 456.610922 
L 606.429764 464.602799 
L 608.54634 463.849121 
L 610.662916 466.042375 
L 612.779492 471.862836 
L 614.896068 502.692002 
L 617.012644 502.454886 
L 619.12922 516.320883 
L 621.245796 456.962508 
L 623.362372 466.526176 
L 625.478948 403.589793 
L 627.595524 363.170128 
L 629.7121 344.956241 
L 631.828676 359.033561 
L 633.945252 412.704428 
L 636.061828 472.148932 
L 638.178404 493.50701 
L 640.29498 484.695073 
L 642.411556 456.543282 
L 644.528133 511.912033 
L 646.644709 529.260279 
L 648.761285 464.130622 
L 650.877861 413.628253 
L 652.994437 380.575672 
L 655.111013 422.966212 
L 657.227589 391.65269 
L 659.344165 350.84244 
L 661.460741 299.059962 
L 663.577317 206.276785 
L 665.693893 245.82215 
L 669.927045 520.705783 
L 672.043621 604.549596 
L 674.160197 410.079591 
L 678.393349 378.659021 
L 680.509925 466.678215 
L 682.626501 310.80279 
L 684.743078 278.461619 
L 686.859654 257.365765 
L 688.97623 277.529194 
L 691.092806 264.006654 
L 693.209382 266.408888 
L 695.325958 232.033547 
L 697.442534 207.94402 
L 699.55911 196.415866 
L 701.675686 205.231292 
L 703.792262 205.978195 
L 705.908838 205.221132 
L 708.025414 189.333063 
L 710.14199 183.94966 
L 712.258566 211.748913 
L 714.375142 233.070987 
L 716.491718 256.137039 
L 718.608294 294.708616 
L 720.72487 336.506037 
L 722.841446 370.999024 
L 724.958023 397.003368 
L 727.074599 413.936871 
L 729.191175 424.196557 
L 731.307751 458.058676 
L 733.424327 480.031957 
L 735.540903 476.785815 
L 737.657479 465.276128 
L 739.774055 481.512948 
L 741.890631 486.567567 
L 744.007207 445.745499 
L 746.123783 388.408736 
L 748.240359 366.788464 
L 750.356935 382.396126 
L 752.473511 382.846441 
L 754.590087 371.726382 
L 756.706663 351.297212 
L 758.823239 326.208232 
L 760.939815 314.142712 
L 763.056391 311.347964 
L 765.172968 306.499683 
L 767.289544 291.4737 
L 769.40612 305.068895 
L 771.522696 362.225487 
L 773.639272 388.466591 
L 775.755848 406.377093 
L 777.872424 407.562947 
L 779.989 364.848467 
L 782.105576 375.435784 
L 784.222152 394.991246 
L 786.338728 402.345513 
L 788.455304 403.354071 
L 790.57188 405.583559 
L 792.688456 400.150804 
L 794.805032 374.036929 
L 796.921608 336.107089 
L 799.038184 337.77351 
L 801.15476 356.340284 
L 803.271336 335.079318 
L 805.387913 339.703704 
L 807.504489 348.921632 
L 809.621065 348.772133 
L 811.737641 337.607644 
L 813.854217 327.096726 
L 815.970793 322.222713 
L 818.087369 334.896254 
L 820.203945 395.248128 
L 822.320521 420.147945 
L 824.437097 393.760327 
L 826.553673 341.280244 
L 828.670249 373.051734 
L 830.786825 392.383111 
L 832.903401 408.19391 
L 835.019977 422.918514 
L 837.136553 440.149069 
L 839.253129 461.693005 
L 841.369705 479.509637 
L 843.486281 472.212379 
L 845.602858 448.496208 
L 847.719434 434.029036 
L 849.83601 389.362105 
L 851.952586 378.198007 
L 854.069162 400.748655 
L 856.185738 400.063517 
L 858.302314 381.003681 
L 860.41889 365.678696 
L 862.535466 358.941202 
L 864.652042 355.394541 
L 866.768618 348.622813 
L 868.885194 365.421201 
L 871.00177 437.522928 
L 873.118346 464.106393 
L 875.234922 405.949327 
L 877.351498 393.172049 
L 879.468074 443.253367 
L 881.58465 470.937399 
L 883.701226 500.941784 
L 885.817803 512.481101 
L 887.934379 513.689467 
L 890.050955 513.243682 
L 892.167531 514.786425 
L 894.284107 517.368008 
L 896.400683 497.86191 
L 898.517259 474.701483 
L 900.633835 424.991381 
L 902.750411 398.281618 
L 904.866987 382.692728 
L 906.983563 376.060649 
L 909.100139 359.54266 
L 911.216715 353.056589 
L 913.333291 345.524405 
L 915.449867 333.765745 
L 917.566443 323.231028 
L 919.683019 306.515166 
L 921.799595 307.176586 
L 923.916171 338.002384 
L 926.032748 377.259752 
L 930.2659 433.410091 
L 932.382476 454.628488 
L 934.499052 471.116283 
L 936.615628 486.256114 
L 938.732204 493.637458 
L 940.84878 498.0911 
L 942.965356 505.802904 
L 945.081932 517.599417 
L 947.198508 465.035727 
L 949.315084 505.219875 
L 951.43166 550.804825 
L 953.548236 566.426933 
L 955.664812 597.619645 
L 957.781388 559.346403 
L 962.01454 472.410864 
L 964.131116 441.955944 
L 966.247693 420.875413 
L 968.364269 408.672475 
L 970.480845 398.007971 
L 972.597421 398.038959 
L 974.713997 349.449105 
L 976.830573 360.116472 
L 978.947149 406.274996 
L 981.063725 434.775161 
L 983.180301 425.241867 
L 985.296877 392.289828 
L 987.413453 394.956611 
L 989.530029 405.616568 
L 991.646605 414.744653 
L 993.763181 412.76769 
L 995.879757 405.296262 
L 997.996333 392.554859 
L 1000.112909 403.87857 
L 1002.229485 449.3202 
L 1004.346061 510.441344 
L 1006.462638 540.792195 
L 1010.69579 384.439459 
L 1012.812366 350.620628 
L 1014.928942 358.569585 
L 1017.045518 387.577843 
L 1021.27867 435.712786 
L 1023.395246 495.496171 
L 1025.511822 482.201836 
L 1027.628398 444.353187 
L 1029.744974 341.142144 
L 1031.86155 311.551733 
L 1033.978126 310.731363 
L 1036.094702 319.282595 
L 1038.211278 348.588269 
L 1040.327854 370.318935 
L 1042.44443 349.869907 
L 1044.561006 344.165587 
L 1046.677583 344.865468 
L 1048.794159 321.448502 
L 1050.910735 303.944282 
L 1053.027311 284.936685 
L 1055.143887 298.019527 
L 1057.260463 358.831844 
L 1059.377039 436.45574 
L 1061.493615 541.251264 
L 1063.610191 592.449574 
L 1065.726767 599.989114 
L 1067.843343 611.734986 
L 1069.959919 576.910996 
L 1072.076495 522.807149 
L 1074.193071 534.282959 
L 1076.309647 532.256194 
L 1078.426223 511.932559 
L 1080.542799 460.872459 
L 1084.775951 275.526949 
L 1086.892528 278.961779 
L 1089.009104 288.134238 
L 1091.12568 300.925335 
L 1093.242256 309.638182 
L 1095.358832 311.21128 
L 1097.475408 309.249988 
L 1099.591984 312.387091 
L 1101.70856 303.13192 
L 1103.825136 323.036522 
L 1105.941712 354.686679 
L 1108.058288 435.431674 
L 1110.174864 469.648221 
L 1112.29144 465.052714 
L 1114.408016 449.802717 
L 1118.641168 385.369254 
L 1120.757744 363.005512 
L 1122.87432 351.721525 
L 1124.990896 381.945341 
L 1127.107472 404.365028 
L 1129.224049 402.269272 
L 1131.340625 375.45528 
L 1133.457201 381.388794 
L 1135.573777 397.342142 
L 1137.690353 416.919815 
L 1139.806929 438.02397 
L 1141.923505 447.181631 
L 1144.040081 444.866316 
L 1146.156657 442.820103 
L 1148.273233 435.550183 
L 1150.389809 404.038043 
L 1152.506385 379.845257 
L 1154.622961 374.304961 
L 1156.739537 396.007281 
L 1158.856113 443.893194 
L 1160.972689 449.174577 
L 1163.089265 459.870611 
L 1165.205841 475.105631 
L 1167.322417 483.661392 
L 1169.438994 479.239136 
L 1173.672146 461.215574 
L 1175.788722 503.563418 
L 1177.905298 477.40374 
L 1180.021874 454.979358 
L 1182.13845 460.428583 
L 1184.255026 471.309293 
L 1186.371602 476.094646 
L 1188.488178 486.615041 
L 1192.72133 504.526096 
L 1194.837906 501.89831 
L 1196.954482 481.504624 
L 1199.071058 484.415418 
L 1201.187634 457.609256 
L 1203.30421 444.805192 
L 1205.420786 392.535151 
L 1207.537362 421.309718 
L 1209.653939 431.998933 
L 1211.770515 445.787538 
L 1213.887091 455.442537 
L 1216.003667 461.138656 
L 1218.120243 468.086894 
L 1220.236819 475.579488 
L 1222.353395 473.266603 
L 1224.469971 459.084332 
L 1226.586547 462.184834 
L 1228.703123 464.192852 
L 1230.819699 468.60825 
L 1232.936275 600.101547 
L 1235.052851 461.024353 
L 1237.169427 474.927357 
L 1239.286003 467.630523 
L 1241.402579 442.148726 
L 1243.519155 425.979401 
L 1245.635731 421.532556 
L 1247.752307 419.782238 
L 1249.868884 418.985719 
L 1251.98546 389.982013 
L 1254.102036 377.120329 
L 1256.218612 327.147832 
L 1258.335188 286.774019 
L 1260.451764 315.641505 
L 1264.684916 367.779702 
L 1266.801492 372.781378 
L 1268.918068 379.888737 
L 1271.034644 385.799877 
L 1273.15122 386.581276 
L 1275.267796 422.701023 
L 1277.384372 507.147539 
L 1279.500948 363.350058 
L 1281.617524 396.653644 
L 1283.7341 399.175542 
L 1285.850676 351.527362 
L 1287.967252 335.161569 
L 1290.083829 411.140314 
L 1292.200405 379.982826 
L 1294.316981 383.097305 
L 1296.433557 407.87986 
L 1298.550133 445.953312 
L 1300.666709 422.744465 
L 1302.783285 450.445648 
L 1304.899861 418.903069 
L 1307.016437 404.819774 
L 1309.133013 375.840982 
L 1311.249589 488.132619 
L 1313.366165 488.315963 
L 1315.482741 430.380442 
L 1317.599317 358.660279 
L 1319.715893 334.209197 
L 1321.832469 337.670385 
L 1323.949045 334.385593 
L 1326.065621 323.361055 
L 1328.182197 249.215034 
L 1330.298774 268.45242 
L 1332.41535 317.502677 
L 1334.531926 358.245028 
L 1336.648502 392.832176 
L 1338.765078 402.327077 
L 1340.881654 407.440471 
L 1342.99823 421.79348 
L 1345.114806 459.099573 
L 1347.231382 455.914686 
L 1349.347958 454.235518 
L 1351.464534 437.698686 
L 1353.58111 400.221862 
L 1357.814262 425.670555 
L 1359.930838 447.879173 
L 1362.047414 491.055966 
L 1366.280566 412.559807 
L 1368.397142 387.383499 
L 1370.513719 375.051287 
L 1372.630295 367.977562 
L 1374.746871 353.448721 
L 1376.863447 320.037162 
L 1378.980023 314.432301 
L 1381.096599 360.221262 
L 1383.213175 384.019317 
L 1385.329751 402.529295 
L 1387.446327 426.855833 
L 1389.562903 454.912706 
L 1391.679479 452.737402 
L 1395.912631 496.232676 
L 1398.029207 506.72285 
L 1400.145783 514.933654 
L 1402.262359 494.115697 
L 1404.378935 457.392023 
L 1406.495511 402.022316 
L 1408.612087 403.787302 
L 1410.728664 416.823369 
L 1412.84524 393.337243 
L 1414.961816 389.273116 
L 1417.078392 391.923835 
L 1419.194968 379.526506 
L 1421.311544 354.058671 
L 1423.42812 327.171804 
L 1425.544696 315.310971 
L 1427.661272 310.392639 
L 1429.777848 319.386444 
L 1431.894424 332.628159 
L 1434.011 359.369414 
L 1436.127576 397.327969 
L 1438.244152 425.933842 
L 1440.360728 441.384979 
L 1442.477304 454.874277 
L 1444.59388 456.274165 
L 1446.710456 460.092431 
L 1448.827032 459.330547 
L 1450.943609 459.681526 
L 1453.060185 460.19267 
L 1455.176761 435.053316 
L 1457.293337 373.790715 
L 1459.409913 353.406466 
L 1461.526489 380.150455 
L 1463.643065 375.620052 
L 1465.759641 398.091068 
L 1467.876217 401.851449 
L 1469.992793 395.876999 
L 1472.109369 384.294254 
L 1474.225945 384.394868 
L 1476.342521 372.690549 
L 1478.459097 330.466805 
L 1480.575673 330.779478 
L 1482.692249 389.366074 
L 1484.808825 406.683718 
L 1486.925401 438.071243 
L 1489.041977 440.737196 
L 1491.158554 428.220683 
L 1493.27513 428.97499 
L 1495.391706 421.820328 
L 1497.508282 428.523913 
L 1499.624858 441.917066 
L 1501.741434 451.963358 
L 1503.85801 436.56782 
L 1505.974586 399.38817 
L 1508.091162 399.349537 
L 1510.207738 425.789045 
L 1512.324314 454.200474 
L 1514.44089 517.164998 
L 1516.557466 540.213579 
L 1518.674042 524.12002 
L 1520.790618 504.418957 
L 1522.907194 486.435553 
L 1525.02377 470.590977 
L 1527.140346 455.965991 
L 1529.256922 451.562737 
L 1531.373499 453.204373 
L 1533.490075 444.595767 
L 1535.606651 409.970699 
L 1537.723227 389.427564 
L 1539.839803 371.960643 
L 1541.956379 370.607609 
L 1544.072955 379.332981 
L 1546.189531 392.741564 
L 1550.422683 414.136845 
L 1552.539259 413.893517 
L 1554.655835 404.594121 
L 1556.772411 382.865662 
L 1558.888987 369.554059 
L 1561.005563 367.161064 
L 1563.122139 402.321313 
L 1565.238715 483.098015 
L 1567.355291 546.563623 
L 1569.471867 584.464689 
L 1571.588444 594.936162 
L 1573.70502 600.832869 
L 1575.821596 605.526458 
L 1577.938172 602.420052 
L 1580.054748 584.157094 
L 1582.171324 539.952164 
L 1584.2879 455.889293 
L 1586.404476 411.774625 
L 1588.521052 432.15347 
L 1590.637628 420.98077 
L 1592.754204 397.807082 
L 1594.87078 383.63849 
L 1596.987356 380.545072 
L 1599.103932 377.783667 
L 1603.337084 384.071675 
L 1605.45366 397.48893 
L 1607.570236 372.151028 
L 1609.686812 358.864854 
L 1611.803389 365.666824 
L 1613.919965 413.111099 
L 1616.036541 513.959733 
L 1618.153117 541.174404 
L 1620.269693 552.110614 
L 1622.386269 549.474121 
L 1624.502845 530.548911 
L 1628.735997 488.626998 
L 1630.852573 470.473565 
L 1632.969149 501.446439 
L 1635.085725 463.766831 
L 1637.202301 393.010521 
L 1639.318877 341.648489 
L 1641.435453 379.373321 
L 1643.552029 374.4589 
L 1645.668605 361.748145 
L 1649.901757 328.9381 
L 1652.018334 329.171861 
L 1654.13491 332.187267 
L 1656.251486 330.039298 
L 1658.368062 299.474284 
L 1660.484638 308.456075 
L 1662.601214 276.15255 
L 1664.71779 247.369443 
L 1666.834366 279.850725 
L 1668.950942 298.893044 
L 1671.067518 304.583487 
L 1673.184094 306.416189 
L 1675.30067 312.853165 
L 1677.417246 330.619025 
L 1679.533822 351.844357 
L 1681.650398 385.058126 
L 1683.766974 516.69358 
L 1685.88355 467.957888 
L 1688.000126 335.684056 
L 1690.116702 356.312272 
L 1692.233279 382.216408 
L 1694.349855 417.409417 
L 1696.466431 525.71951 
L 1698.583007 582.31414 
L 1700.699583 558.36815 
L 1702.816159 556.164758 
L 1704.932735 559.914227 
L 1707.049311 570.455729 
L 1709.165887 545.919033 
L 1711.282463 361.748841 
L 1713.399039 271.611344 
L 1715.515615 266.929203 
L 1717.632191 373.373212 
L 1719.748767 285.306769 
L 1721.865343 359.681699 
L 1723.981919 354.986714 
L 1726.098495 315.193578 
L 1728.215071 355.601854 
L 1730.331647 449.493156 
L 1732.448224 410.191969 
L 1734.5648 412.738913 
L 1736.681376 373.01722 
L 1738.797952 379.288319 
L 1740.914528 381.134099 
L 1743.031104 332.907275 
L 1745.14768 333.35094 
L 1747.264256 345.393826 
L 1749.380832 335.040242 
L 1751.497408 345.607785 
L 1753.613984 326.68343 
L 1755.73056 322.602764 
L 1757.847136 319.544185 
L 1759.963712 288.001334 
L 1762.080288 275.167416 
L 1764.196864 282.394866 
L 1766.31344 296.651911 
L 1768.430016 319.754908 
L 1770.546592 346.020416 
L 1772.663169 354.907933 
L 1774.779745 353.043096 
L 1776.896321 353.406061 
L 1779.012897 349.275479 
L 1781.129473 339.252894 
L 1783.246049 326.609791 
L 1785.362625 343.847287 
L 1787.479201 393.346547 
L 1789.595777 378.51412 
L 1791.712353 351.578064 
L 1793.828929 327.176138 
L 1795.945505 309.293332 
L 1798.062081 294.333157 
L 1800.178657 292.282284 
L 1802.295233 291.287878 
L 1804.411809 281.62455 
L 1806.528385 265.887683 
L 1808.644961 257.223918 
L 1810.761537 234.362693 
L 1812.878114 188.772735 
L 1814.99469 179.232321 
L 1817.111266 187.558083 
L 1819.227842 237.266922 
L 1821.344418 260.530015 
L 1823.460994 297.628879 
L 1825.57757 314.480522 
L 1827.694146 321.377387 
L 1829.810722 327.613466 
L 1831.927298 330.368361 
L 1834.043874 314.317088 
L 1836.16045 371.17775 
L 1838.277026 372.296246 
L 1840.393602 338.978692 
L 1842.510178 313.198258 
L 1844.626754 294.514126 
L 1846.74333 263.042079 
L 1848.859906 226.716283 
L 1850.976482 266.769072 
L 1853.093059 302.561537 
L 1855.209635 274.397712 
L 1857.326211 266.364589 
L 1859.442787 209.717592 
L 1861.559363 165.847056 
L 1863.675939 195.02214 
L 1865.792515 239.674339 
L 1867.909091 301.117941 
L 1867.909091 301.117941 
" style="fill:none;stroke:#0000ff;stroke-linecap:square;"/>
   </g>
   <g id="line2d_24">
    <path clip-path="url(#pe455e73790)" d="M 346.090909 415.312993 
L 348.207485 412.329139 
L 350.324061 411.656879 
L 352.440637 414.108339 
L 354.557213 407.462095 
L 356.673789 406.085502 
L 358.790365 423.434666 
L 360.906941 475.323591 
L 363.023518 507.679881 
L 365.140094 565.662262 
L 367.25667 582.182717 
L 369.373246 558.849823 
L 371.489822 549.023916 
L 373.606398 566.083061 
L 375.722974 594.818132 
L 377.83955 559.873175 
L 382.072702 537.450374 
L 384.189278 550.9308 
L 386.305854 592.507331 
L 388.42243 578.075177 
L 390.539006 539.768414 
L 392.655582 522.009604 
L 394.772158 490.917276 
L 396.888734 381.573135 
L 399.00531 357.472696 
L 401.121886 325.519902 
L 403.238463 290.138407 
L 405.355039 276.34956 
L 407.471615 297.759468 
L 409.588191 326.470639 
L 411.704767 338.428913 
L 413.821343 336.367315 
L 418.054495 384.559853 
L 420.171071 422.814591 
L 422.287647 358.540881 
L 424.404223 310.818508 
L 426.520799 427.854638 
L 428.637375 404.150185 
L 430.753951 353.286164 
L 432.870527 327.537713 
L 434.987103 356.245785 
L 437.103679 392.169541 
L 439.220255 371.789078 
L 441.336831 334.036105 
L 443.453408 337.827687 
L 445.569984 342.733842 
L 447.68656 369.775631 
L 449.803136 365.485175 
L 451.919712 301.87082 
L 454.036288 286.244615 
L 456.152864 296.362058 
L 458.26944 296.886321 
L 460.386016 298.25713 
L 462.502592 300.179395 
L 464.619168 330.70467 
L 466.735744 363.694441 
L 468.85232 394.557158 
L 470.968896 325.975876 
L 473.085472 318.537726 
L 475.202048 299.743784 
L 477.318624 274.048008 
L 479.4352 255.484419 
L 481.551776 243.025339 
L 483.668353 232.91796 
L 485.784929 225.620745 
L 487.901505 216.676496 
L 490.018081 199.866675 
L 492.134657 168.621018 
L 494.251233 197.565739 
L 496.367809 241.325616 
L 498.484385 262.593528 
L 500.600961 303.113342 
L 502.717537 336.885379 
L 504.834113 373.168055 
L 506.950689 391.653183 
L 509.067265 395.793979 
L 511.183841 394.928324 
L 513.300417 387.941043 
L 515.416993 435.83371 
L 517.533569 417.034704 
L 519.650145 384.671582 
L 521.766721 363.658946 
L 523.883298 348.449005 
L 525.999874 334.250842 
L 528.11645 323.494898 
L 530.233026 305.576018 
L 532.349602 289.178457 
L 534.466178 294.162847 
L 536.582754 307.109276 
L 538.69933 315.594275 
L 540.815906 280.826948 
L 542.932482 251.843568 
L 545.049058 243.838349 
L 547.165634 284.936403 
L 549.28221 370.921004 
L 551.398786 419.186326 
L 553.515362 454.708307 
L 555.631938 481.196346 
L 557.748514 502.213656 
L 559.86509 526.092124 
L 561.981666 534.586539 
L 564.098243 498.742532 
L 566.214819 458.956318 
L 568.331395 421.734206 
L 570.447971 424.631637 
L 572.564547 428.011941 
L 574.681123 425.206054 
L 576.797699 422.790399 
L 578.914275 422.019592 
L 581.030851 430.964132 
L 583.147427 436.776186 
L 585.264003 431.667312 
L 587.380579 423.592761 
L 589.497155 418.059293 
L 591.613731 379.798875 
L 593.730307 373.333144 
L 595.846883 345.914403 
L 597.963459 346.762951 
L 600.080035 405.142309 
L 602.196611 438.855956 
L 604.313188 461.863976 
L 606.429764 469.350853 
L 608.54634 468.206436 
L 610.662916 470.189363 
L 612.779492 475.843774 
L 614.896068 506.78188 
L 617.012644 506.63626 
L 619.12922 521.792365 
L 621.245796 451.530135 
L 623.362372 461.72209 
L 625.478948 398.291141 
L 627.595524 357.436796 
L 629.7121 339.031478 
L 631.828676 353.083981 
L 633.945252 418.695826 
L 636.061828 477.481716 
L 638.178404 498.519399 
L 640.29498 489.128612 
L 642.411556 459.851222 
L 644.528133 516.068731 
L 646.644709 534.013422 
L 648.761285 469.646878 
L 650.877861 416.758498 
L 652.994437 382.771943 
L 655.111013 425.72373 
L 657.227589 393.727711 
L 659.344165 352.383381 
L 661.460741 299.779151 
L 663.577317 206.126703 
L 665.693893 245.712047 
L 669.927045 522.061697 
L 672.043621 603.838008 
L 674.160197 404.68305 
L 676.276773 400.154163 
L 678.393349 384.094985 
L 680.509925 470.88816 
L 682.626501 312.40932 
L 684.743078 279.83787 
L 686.859654 258.093059 
L 688.97623 278.264873 
L 691.092806 264.546832 
L 693.209382 267.042496 
L 695.325958 232.313851 
L 697.442534 207.94595 
L 699.55911 196.208405 
L 701.675686 204.799008 
L 703.792262 205.435243 
L 705.908838 204.9427 
L 708.025414 189.062173 
L 710.14199 183.603842 
L 712.258566 211.541909 
L 714.375142 232.93318 
L 716.491718 256.074463 
L 718.608294 294.86005 
L 720.72487 336.795099 
L 722.841446 371.405884 
L 724.958023 397.50251 
L 727.074599 414.491766 
L 729.191175 424.5851 
L 731.307751 458.450907 
L 733.424327 480.449575 
L 735.540903 477.061134 
L 737.657479 465.366732 
L 739.774055 481.674836 
L 741.890631 486.740817 
L 744.007207 445.603173 
L 746.123783 387.941828 
L 748.240359 366.419111 
L 750.356935 382.274471 
L 752.473511 383.11617 
L 754.590087 372.235216 
L 756.706663 351.784359 
L 758.823239 326.572861 
L 760.939815 314.445191 
L 763.056391 311.550704 
L 765.172968 306.540649 
L 767.289544 291.180069 
L 769.40612 304.841845 
L 771.522696 362.402757 
L 773.639272 388.673093 
L 775.755848 406.520581 
L 777.872424 407.195173 
L 779.989 363.46014 
L 782.105576 374.026064 
L 784.222152 393.675158 
L 786.338728 401.157314 
L 788.455304 402.212224 
L 790.57188 404.443901 
L 792.688456 398.871447 
L 794.805032 372.451533 
L 796.921608 334.128415 
L 799.038184 335.771006 
L 801.15476 354.618953 
L 803.271336 333.537352 
L 805.387913 338.38657 
L 807.504489 347.836172 
L 809.621065 347.820074 
L 811.737641 336.679941 
L 813.854217 326.19655 
L 815.970793 321.327181 
L 818.087369 333.963895 
L 820.203945 394.883902 
L 822.320521 420.678253 
L 824.437097 393.383454 
L 826.553673 339.86377 
L 828.670249 371.808453 
L 830.786825 391.104118 
L 832.903401 406.934462 
L 835.019977 421.739552 
L 837.136553 439.096984 
L 839.253129 460.778082 
L 841.369705 478.695061 
L 843.486281 471.319787 
L 845.602858 447.384105 
L 847.719434 432.825252 
L 849.83601 388.194616 
L 851.952586 377.058836 
L 854.069162 400.014861 
L 856.185738 399.688802 
L 858.302314 380.771677 
L 860.41889 365.400916 
L 862.535466 358.616687 
L 864.652042 354.975725 
L 866.768618 348.07916 
L 868.885194 364.715719 
L 871.00177 437.265451 
L 873.118346 464.51634 
L 875.234922 405.0549 
L 877.351498 391.774061 
L 879.468074 442.304405 
L 881.58465 470.27606 
L 883.701226 500.584254 
L 885.817803 512.493545 
L 887.934379 514.00015 
L 890.050955 513.69775 
L 892.167531 515.278325 
L 894.284107 517.972799 
L 896.400683 498.578457 
L 898.517259 475.339003 
L 900.633835 425.52681 
L 902.750411 398.894576 
L 904.866987 383.492456 
L 906.983563 376.971958 
L 909.100139 360.443666 
L 911.216715 353.994456 
L 913.333291 346.473092 
L 915.449867 334.599867 
L 917.566443 323.865282 
L 919.683019 306.831258 
L 921.799595 307.26113 
L 923.916171 338.16444 
L 926.032748 377.791017 
L 930.2659 433.733518 
L 932.382476 454.940656 
L 934.499052 471.542 
L 936.615628 486.734853 
L 938.732204 493.896781 
L 940.84878 498.033938 
L 942.965356 505.459964 
L 945.081932 516.996916 
L 947.198508 463.634127 
L 949.315084 504.032615 
L 951.43166 550.546326 
L 953.548236 567.772062 
L 955.664812 600.064777 
L 957.781388 561.99733 
L 962.01454 474.578927 
L 964.131116 443.846894 
L 966.247693 422.417444 
L 968.364269 409.864228 
L 970.480845 398.901601 
L 972.597421 398.763212 
L 974.713997 349.386126 
L 976.830573 359.874925 
L 978.947149 406.226777 
L 981.063725 434.343767 
L 983.180301 423.647527 
L 985.296877 389.992101 
L 987.413453 392.506331 
L 989.530029 403.033765 
L 991.646605 412.059683 
L 993.763181 409.899898 
L 995.879757 402.272285 
L 997.996333 389.343538 
L 1000.112909 400.613806 
L 1002.229485 446.070953 
L 1004.346061 507.191858 
L 1006.462638 546.743591 
L 1010.69579 386.878755 
L 1012.812366 352.617824 
L 1014.928942 360.494712 
L 1017.045518 389.572109 
L 1021.27867 437.709264 
L 1023.395246 498.013144 
L 1025.511822 483.688583 
L 1027.628398 443.283191 
L 1029.744974 338.206932 
L 1031.86155 308.45552 
L 1033.978126 307.519833 
L 1036.094702 315.931213 
L 1038.211278 345.288073 
L 1040.327854 366.869221 
L 1042.44443 346.689169 
L 1044.561006 341.0007 
L 1046.677583 341.616668 
L 1048.794159 318.040766 
L 1050.910735 300.323708 
L 1053.027311 281.221991 
L 1055.143887 294.392628 
L 1057.260463 355.467637 
L 1059.377039 433.699653 
L 1061.493615 539.000865 
L 1063.610191 588.656358 
L 1065.726767 597.211721 
L 1067.843343 615.6 
L 1069.959919 578.561157 
L 1072.076495 522.339662 
L 1074.193071 532.985538 
L 1076.309647 530.239361 
L 1078.426223 509.822585 
L 1080.542799 458.594759 
L 1084.775951 272.605533 
L 1086.892528 275.985364 
L 1089.009104 285.128699 
L 1091.12568 297.904307 
L 1093.242256 306.624219 
L 1095.358832 308.218233 
L 1097.475408 306.230829 
L 1099.591984 309.251236 
L 1101.70856 299.790758 
L 1103.825136 319.736565 
L 1105.941712 351.719661 
L 1108.058288 433.06641 
L 1110.174864 468.179583 
L 1112.29144 464.236324 
L 1114.408016 449.284677 
L 1118.641168 384.538581 
L 1120.757744 361.819906 
L 1122.87432 350.157979 
L 1124.990896 380.222683 
L 1127.107472 402.419024 
L 1129.224049 400.235066 
L 1131.340625 373.59105 
L 1133.457201 379.581314 
L 1135.573777 395.547596 
L 1137.690353 415.189431 
L 1139.806929 436.417148 
L 1141.923505 445.611412 
L 1144.040081 443.261468 
L 1146.156657 441.084319 
L 1148.273233 433.642652 
L 1150.389809 401.811366 
L 1152.506385 377.348693 
L 1154.622961 371.675989 
L 1156.739537 393.564632 
L 1158.856113 442.018442 
L 1160.972689 447.366101 
L 1163.089265 458.049812 
L 1165.205841 473.386879 
L 1167.322417 482.026991 
L 1169.438994 477.546851 
L 1173.672146 459.379874 
L 1175.788722 501.764807 
L 1177.905298 475.057165 
L 1180.021874 452.483509 
L 1182.13845 458.068245 
L 1184.255026 469.064189 
L 1186.371602 473.705416 
L 1188.488178 484.234017 
L 1192.72133 502.369219 
L 1194.837906 499.412976 
L 1196.954482 478.484033 
L 1199.071058 480.957044 
L 1201.187634 453.403602 
L 1203.30421 439.982514 
L 1205.420786 386.727757 
L 1207.537362 427.277692 
L 1209.653939 437.503368 
L 1211.770515 451.102636 
L 1213.887091 460.593393 
L 1216.003667 466.04099 
L 1218.120243 472.74694 
L 1220.236819 479.89759 
L 1222.353395 476.958649 
L 1224.469971 461.969451 
L 1226.586547 464.28972 
L 1228.703123 465.774653 
L 1230.819699 469.180635 
L 1232.936275 599.435999 
L 1235.052851 456.764761 
L 1237.169427 470.514575 
L 1239.286003 462.867675 
L 1241.402579 436.958652 
L 1243.519155 420.589015 
L 1245.635731 416.061432 
L 1247.752307 414.300207 
L 1249.868884 413.469621 
L 1251.98546 384.140265 
L 1254.102036 382.893841 
L 1256.218612 332.153465 
L 1258.335188 290.954007 
L 1260.451764 319.71459 
L 1264.684916 371.886499 
L 1266.801492 377.001399 
L 1268.918068 384.089711 
L 1271.034644 390.173334 
L 1273.15122 390.992169 
L 1275.267796 427.459728 
L 1277.384372 509.595789 
L 1279.500948 363.068298 
L 1281.617524 396.420135 
L 1283.7341 399.120817 
L 1285.850676 349.882998 
L 1287.967252 333.123852 
L 1290.083829 410.711709 
L 1292.200405 380.103654 
L 1294.316981 383.535474 
L 1296.433557 408.456496 
L 1298.550133 445.923721 
L 1300.666709 421.857287 
L 1302.783285 450.258023 
L 1304.899861 420.062408 
L 1307.016437 405.686962 
L 1309.133013 376.607207 
L 1311.249589 488.432351 
L 1313.366165 489.374699 
L 1315.482741 431.667259 
L 1317.599317 359.581618 
L 1319.715893 334.634354 
L 1321.832469 337.707411 
L 1323.949045 334.290653 
L 1326.065621 323.495408 
L 1328.182197 249.082529 
L 1330.298774 268.407664 
L 1332.41535 317.451494 
L 1334.531926 358.362389 
L 1336.648502 393.274702 
L 1338.765078 402.688715 
L 1340.881654 407.58215 
L 1342.99823 421.920246 
L 1345.114806 459.463474 
L 1347.231382 455.988871 
L 1349.347958 454.192122 
L 1351.464534 437.641821 
L 1353.58111 399.937785 
L 1357.814262 425.577406 
L 1359.930838 448.093052 
L 1362.047414 493.1935 
L 1364.16399 455.019372 
L 1366.280566 414.740142 
L 1368.397142 389.239481 
L 1370.513719 376.451428 
L 1372.630295 368.958894 
L 1374.746871 354.086275 
L 1376.863447 320.265055 
L 1378.980023 314.57711 
L 1381.096599 360.636152 
L 1383.213175 384.433181 
L 1385.329751 403.00871 
L 1387.446327 427.244549 
L 1389.562903 455.003545 
L 1391.679479 452.229724 
L 1395.912631 496.162695 
L 1398.029207 507.001416 
L 1400.145783 515.48265 
L 1402.262359 494.594518 
L 1404.378935 457.524171 
L 1406.495511 401.777213 
L 1408.612087 403.789621 
L 1410.728664 417.343452 
L 1412.84524 393.93367 
L 1414.961816 390.02652 
L 1417.078392 392.86323 
L 1419.194968 380.504847 
L 1421.311544 354.921517 
L 1423.42812 327.831049 
L 1425.544696 315.764575 
L 1427.661272 310.630372 
L 1429.777848 319.393521 
L 1431.894424 332.54684 
L 1434.011 359.557389 
L 1436.127576 397.865188 
L 1438.244152 426.703873 
L 1440.360728 442.179209 
L 1442.477304 455.61408 
L 1444.59388 456.890406 
L 1446.710456 460.6503 
L 1448.827032 459.818754 
L 1450.943609 460.132597 
L 1453.060185 460.757259 
L 1455.176761 435.51316 
L 1457.293337 373.723761 
L 1459.409913 353.097294 
L 1461.526489 379.974317 
L 1463.643065 375.820629 
L 1465.759641 398.634855 
L 1467.876217 402.58955 
L 1469.992793 396.634743 
L 1472.109369 385.014981 
L 1474.225945 385.09605 
L 1476.342521 373.188134 
L 1478.459097 330.622194 
L 1480.575673 330.776921 
L 1482.692249 389.779046 
L 1484.808825 407.060209 
L 1486.925401 438.443901 
L 1489.041977 440.56295 
L 1491.158554 427.494064 
L 1493.27513 428.146852 
L 1495.391706 420.746158 
L 1497.508282 427.186722 
L 1499.624858 440.358993 
L 1501.741434 450.223526 
L 1503.85801 434.512567 
L 1505.974586 396.976856 
L 1508.091162 396.689395 
L 1510.207738 423.229831 
L 1512.324314 451.943662 
L 1514.44089 515.686382 
L 1516.557466 539.604502 
L 1518.674042 523.85749 
L 1520.790618 504.191444 
L 1522.907194 486.138149 
L 1525.02377 470.054427 
L 1527.140346 455.126449 
L 1529.256922 450.426302 
L 1531.373499 451.637317 
L 1533.490075 442.538282 
L 1535.606651 407.568969 
L 1537.723227 386.791665 
L 1539.839803 369.191031 
L 1541.956379 367.740682 
L 1544.072955 376.3748 
L 1546.189531 389.711173 
L 1550.422683 411.146344 
L 1552.539259 410.896498 
L 1554.655835 401.517604 
L 1556.772411 379.530828 
L 1558.888987 365.839721 
L 1561.005563 363.13053 
L 1563.122139 398.359945 
L 1565.238715 479.24955 
L 1567.355291 542.717191 
L 1569.471867 580.440708 
L 1571.588444 602.083443 
L 1573.70502 607.25046 
L 1575.821596 610.050009 
L 1577.938172 604.701865 
L 1580.054748 584.78762 
L 1582.171324 538.679438 
L 1584.2879 453.570178 
L 1586.404476 408.819757 
L 1588.521052 429.247692 
L 1590.637628 417.947196 
L 1592.754204 394.47884 
L 1594.87078 379.934846 
L 1596.987356 376.417683 
L 1599.103932 373.434755 
L 1603.337084 379.591374 
L 1605.45366 392.967426 
L 1607.570236 367.304092 
L 1609.686812 353.57541 
L 1611.803389 360.212353 
L 1613.919965 407.769573 
L 1616.036541 519.436496 
L 1618.153117 546.292358 
L 1620.269693 556.828902 
L 1622.386269 553.775211 
L 1624.502845 534.160582 
L 1628.735997 491.347383 
L 1630.852573 472.574765 
L 1632.969149 502.931588 
L 1635.085725 463.34775 
L 1637.202301 390.491891 
L 1639.318877 337.748698 
L 1641.435453 375.335084 
L 1643.552029 370.035358 
L 1645.668605 356.993093 
L 1649.901757 323.476337 
L 1652.018334 323.498912 
L 1654.13491 326.403336 
L 1656.251486 324.04652 
L 1658.368062 293.025704 
L 1660.484638 301.938365 
L 1662.601214 280.979354 
L 1664.71779 251.273318 
L 1666.834366 283.491369 
L 1668.950942 302.379334 
L 1671.067518 307.985035 
L 1673.184094 309.635392 
L 1675.30067 315.875122 
L 1677.417246 333.632137 
L 1679.533822 354.992238 
L 1681.650398 388.508578 
L 1683.766974 521.194223 
L 1685.88355 471.054546 
L 1688.000126 335.777844 
L 1690.116702 356.743834 
L 1692.233279 382.943842 
L 1694.349855 418.554427 
L 1696.466431 527.089206 
L 1698.583007 580.558121 
L 1700.699583 558.763631 
L 1702.816159 556.415722 
L 1704.932735 557.616852 
L 1707.049311 572.250696 
L 1709.165887 547.541123 
L 1711.282463 362.877963 
L 1713.399039 271.965831 
L 1715.515615 267.0662 
L 1717.632191 373.577425 
L 1719.748767 285.230629 
L 1721.865343 359.639572 
L 1723.981919 354.878598 
L 1726.098495 315.106056 
L 1728.215071 354.965049 
L 1730.331647 448.378479 
L 1732.448224 410.243603 
L 1734.5648 413.2503 
L 1736.681376 373.274428 
L 1738.797952 379.627035 
L 1740.914528 381.2047 
L 1743.031104 332.319047 
L 1745.14768 332.379229 
L 1747.264256 344.183312 
L 1749.380832 333.543304 
L 1751.497408 344.006769 
L 1753.613984 324.858231 
L 1755.73056 320.616212 
L 1757.847136 317.413263 
L 1759.963712 285.556749 
L 1762.080288 272.495416 
L 1764.196864 279.726762 
L 1766.31344 294.012483 
L 1768.430016 317.31287 
L 1770.546592 343.846028 
L 1772.663169 352.917698 
L 1774.779745 351.095356 
L 1776.896321 351.48482 
L 1779.012897 347.276453 
L 1781.129473 337.141076 
L 1783.246049 324.37069 
L 1785.362625 341.608552 
L 1787.479201 391.267934 
L 1789.595777 376.190399 
L 1791.712353 348.930243 
L 1793.828929 324.288035 
L 1795.945505 306.269279 
L 1798.062081 291.147519 
L 1800.178657 288.947526 
L 1802.295233 287.83837 
L 1804.411809 277.99846 
L 1806.528385 262.034801 
L 1808.644961 253.152996 
L 1810.761537 229.997014 
L 1812.878114 183.903707 
L 1814.99469 174.068568 
L 1817.111266 182.320055 
L 1819.227842 232.189544 
L 1821.344418 255.566076 
L 1823.460994 292.801476 
L 1825.57757 309.793149 
L 1827.694146 316.828242 
L 1829.810722 323.054459 
L 1831.927298 325.796524 
L 1834.043874 309.801496 
L 1836.16045 367.315626 
L 1838.277026 368.709657 
L 1840.393602 335.085786 
L 1842.510178 308.91439 
L 1844.626754 289.883365 
L 1846.74333 258.025158 
L 1848.859906 221.274468 
L 1850.976482 261.466798 
L 1853.093059 297.366231 
L 1855.209635 268.662906 
L 1857.326211 260.339371 
L 1859.442787 203.053836 
L 1861.559363 158.789807 
L 1863.675939 188.386409 
L 1865.792515 233.214654 
L 1867.909091 305.99366 
L 1867.909091 305.99366 
" style="fill:none;stroke:#008000;stroke-linecap:square;"/>
   </g>
   <g id="patch_3">
    <path d="M 270 640.8 
L 270 86.4 
" style="fill:none;stroke:#000000;stroke-linecap:square;stroke-linejoin:miter;stroke-width:0.8;"/>
   </g>
   <g id="patch_4">
    <path d="M 1944 640.8 
L 1944 86.4 
" style="fill:none;stroke:#000000;stroke-linecap:square;stroke-linejoin:miter;stroke-width:0.8;"/>
   </g>
   <g id="patch_5">
    <path d="M 270 640.8 
L 1944 640.8 
" style="fill:none;stroke:#000000;stroke-linecap:square;stroke-linejoin:miter;stroke-width:0.8;"/>
   </g>
   <g id="patch_6">
    <path d="M 270 86.4 
L 1944 86.4 
" style="fill:none;stroke:#000000;stroke-linecap:square;stroke-linejoin:miter;stroke-width:0.8;"/>
   </g>
   <g id="text_24">
    <!-- Wind Power Predictions LR + MLR -->
    <g transform="translate(1006.094063 80.4)scale(0.12 -0.12)">
     <defs>
      <path d="M 3.328125 72.90625 
L 13.28125 72.90625 
L 28.609375 11.28125 
L 43.890625 72.90625 
L 54.984375 72.90625 
L 70.3125 11.28125 
L 85.59375 72.90625 
L 95.609375 72.90625 
L 77.296875 0 
L 64.890625 0 
L 49.515625 63.28125 
L 33.984375 0 
L 21.578125 0 
z
" id="DejaVuSans-87"/>
      <path d="M 48.78125 52.59375 
L 48.78125 44.1875 
Q 44.96875 46.296875 41.140625 47.34375 
Q 37.3125 48.390625 33.40625 48.390625 
Q 24.65625 48.390625 19.8125 42.84375 
Q 14.984375 37.3125 14.984375 27.296875 
Q 14.984375 17.28125 19.8125 11.734375 
Q 24.65625 6.203125 33.40625 6.203125 
Q 37.3125 6.203125 41.140625 7.25 
Q 44.96875 8.296875 48.78125 10.40625 
L 48.78125 2.09375 
Q 45.015625 0.34375 40.984375 -0.53125 
Q 36.96875 -1.421875 32.421875 -1.421875 
Q 20.0625 -1.421875 12.78125 6.34375 
Q 5.515625 14.109375 5.515625 27.296875 
Q 5.515625 40.671875 12.859375 48.328125 
Q 20.21875 56 33.015625 56 
Q 37.15625 56 41.109375 55.140625 
Q 45.0625 54.296875 48.78125 52.59375 
z
" id="DejaVuSans-99"/>
      <path d="M 44.28125 53.078125 
L 44.28125 44.578125 
Q 40.484375 46.53125 36.375 47.5 
Q 32.28125 48.484375 27.875 48.484375 
Q 21.1875 48.484375 17.84375 46.4375 
Q 14.5 44.390625 14.5 40.28125 
Q 14.5 37.15625 16.890625 35.375 
Q 19.28125 33.59375 26.515625 31.984375 
L 29.59375 31.296875 
Q 39.15625 29.25 43.1875 25.515625 
Q 47.21875 21.78125 47.21875 15.09375 
Q 47.21875 7.46875 41.1875 3.015625 
Q 35.15625 -1.421875 24.609375 -1.421875 
Q 20.21875 -1.421875 15.453125 -0.5625 
Q 10.6875 0.296875 5.421875 2 
L 5.421875 11.28125 
Q 10.40625 8.6875 15.234375 7.390625 
Q 20.0625 6.109375 24.8125 6.109375 
Q 31.15625 6.109375 34.5625 8.28125 
Q 37.984375 10.453125 37.984375 14.40625 
Q 37.984375 18.0625 35.515625 20.015625 
Q 33.0625 21.96875 24.703125 23.78125 
L 21.578125 24.515625 
Q 13.234375 26.265625 9.515625 29.90625 
Q 5.8125 33.546875 5.8125 39.890625 
Q 5.8125 47.609375 11.28125 51.796875 
Q 16.75 56 26.8125 56 
Q 31.78125 56 36.171875 55.265625 
Q 40.578125 54.546875 44.28125 53.078125 
z
" id="DejaVuSans-115"/>
      <path d="M 9.8125 72.90625 
L 19.671875 72.90625 
L 19.671875 8.296875 
L 55.171875 8.296875 
L 55.171875 0 
L 9.8125 0 
z
" id="DejaVuSans-76"/>
      <path d="M 44.390625 34.1875 
Q 47.5625 33.109375 50.5625 29.59375 
Q 53.5625 26.078125 56.59375 19.921875 
L 66.609375 0 
L 56 0 
L 46.6875 18.703125 
Q 43.0625 26.03125 39.671875 28.421875 
Q 36.28125 30.8125 30.421875 30.8125 
L 19.671875 30.8125 
L 19.671875 0 
L 9.8125 0 
L 9.8125 72.90625 
L 32.078125 72.90625 
Q 44.578125 72.90625 50.734375 67.671875 
Q 56.890625 62.453125 56.890625 51.90625 
Q 56.890625 45.015625 53.6875 40.46875 
Q 50.484375 35.9375 44.390625 34.1875 
z
M 19.671875 64.796875 
L 19.671875 38.921875 
L 32.078125 38.921875 
Q 39.203125 38.921875 42.84375 42.21875 
Q 46.484375 45.515625 46.484375 51.90625 
Q 46.484375 58.296875 42.84375 61.546875 
Q 39.203125 64.796875 32.078125 64.796875 
z
" id="DejaVuSans-82"/>
      <path d="M 46 62.703125 
L 46 35.5 
L 73.1875 35.5 
L 73.1875 27.203125 
L 46 27.203125 
L 46 0 
L 37.796875 0 
L 37.796875 27.203125 
L 10.59375 27.203125 
L 10.59375 35.5 
L 37.796875 35.5 
L 37.796875 62.703125 
z
" id="DejaVuSans-43"/>
      <path d="M 9.8125 72.90625 
L 24.515625 72.90625 
L 43.109375 23.296875 
L 61.8125 72.90625 
L 76.515625 72.90625 
L 76.515625 0 
L 66.890625 0 
L 66.890625 64.015625 
L 48.09375 14.015625 
L 38.1875 14.015625 
L 19.390625 64.015625 
L 19.390625 0 
L 9.8125 0 
z
" id="DejaVuSans-77"/>
     </defs>
     <use xlink:href="#DejaVuSans-87"/>
     <use x="96.626953" xlink:href="#DejaVuSans-105"/>
     <use x="124.410156" xlink:href="#DejaVuSans-110"/>
     <use x="187.789062" xlink:href="#DejaVuSans-100"/>
     <use x="251.265625" xlink:href="#DejaVuSans-32"/>
     <use x="283.052734" xlink:href="#DejaVuSans-80"/>
     <use x="339.730469" xlink:href="#DejaVuSans-111"/>
     <use x="400.912109" xlink:href="#DejaVuSans-119"/>
     <use x="482.699219" xlink:href="#DejaVuSans-101"/>
     <use x="544.222656" xlink:href="#DejaVuSans-114"/>
     <use x="585.335938" xlink:href="#DejaVuSans-32"/>
     <use x="617.123047" xlink:href="#DejaVuSans-80"/>
     <use x="675.675781" xlink:href="#DejaVuSans-114"/>
     <use x="714.539062" xlink:href="#DejaVuSans-101"/>
     <use x="776.0625" xlink:href="#DejaVuSans-100"/>
     <use x="839.539062" xlink:href="#DejaVuSans-105"/>
     <use x="867.322266" xlink:href="#DejaVuSans-99"/>
     <use x="922.302734" xlink:href="#DejaVuSans-116"/>
     <use x="961.511719" xlink:href="#DejaVuSans-105"/>
     <use x="989.294922" xlink:href="#DejaVuSans-111"/>
     <use x="1050.476562" xlink:href="#DejaVuSans-110"/>
     <use x="1113.855469" xlink:href="#DejaVuSans-115"/>
     <use x="1165.955078" xlink:href="#DejaVuSans-32"/>
     <use x="1197.742188" xlink:href="#DejaVuSans-76"/>
     <use x="1253.455078" xlink:href="#DejaVuSans-82"/>
     <use x="1322.9375" xlink:href="#DejaVuSans-32"/>
     <use x="1354.724609" xlink:href="#DejaVuSans-43"/>
     <use x="1438.513672" xlink:href="#DejaVuSans-32"/>
     <use x="1470.300781" xlink:href="#DejaVuSans-77"/>
     <use x="1556.580078" xlink:href="#DejaVuSans-76"/>
     <use x="1612.292969" xlink:href="#DejaVuSans-82"/>
    </g>
   </g>
   <g id="legend_1">
    <g id="patch_7">
     <path d="M 277 138.434375 
L 400.482813 138.434375 
Q 402.482813 138.434375 402.482813 136.434375 
L 402.482813 93.4 
Q 402.482813 91.4 400.482813 91.4 
L 277 91.4 
Q 275 91.4 275 93.4 
L 275 136.434375 
Q 275 138.434375 277 138.434375 
z
" style="fill:#ffffff;opacity:0.8;stroke:#cccccc;stroke-linejoin:miter;"/>
    </g>
    <g id="line2d_25">
     <path d="M 279 99.498437 
L 299 99.498437 
" style="fill:none;stroke:#ff0000;stroke-linecap:square;"/>
    </g>
    <g id="line2d_26"/>
    <g id="text_25">
     <!-- True power output -->
     <g transform="translate(307 102.998437)scale(0.1 -0.1)">
      <defs>
       <path d="M -0.296875 72.90625 
L 61.375 72.90625 
L 61.375 64.59375 
L 35.5 64.59375 
L 35.5 0 
L 25.59375 0 
L 25.59375 64.59375 
L -0.296875 64.59375 
z
" id="DejaVuSans-84"/>
      </defs>
      <use xlink:href="#DejaVuSans-84"/>
      <use x="46.333984" xlink:href="#DejaVuSans-114"/>
      <use x="87.447266" xlink:href="#DejaVuSans-117"/>
      <use x="150.826172" xlink:href="#DejaVuSans-101"/>
      <use x="212.349609" xlink:href="#DejaVuSans-32"/>
      <use x="244.136719" xlink:href="#DejaVuSans-112"/>
      <use x="307.613281" xlink:href="#DejaVuSans-111"/>
      <use x="368.794922" xlink:href="#DejaVuSans-119"/>
      <use x="450.582031" xlink:href="#DejaVuSans-101"/>
      <use x="512.105469" xlink:href="#DejaVuSans-114"/>
      <use x="553.21875" xlink:href="#DejaVuSans-32"/>
      <use x="585.005859" xlink:href="#DejaVuSans-111"/>
      <use x="646.1875" xlink:href="#DejaVuSans-117"/>
      <use x="709.566406" xlink:href="#DejaVuSans-116"/>
      <use x="748.775391" xlink:href="#DejaVuSans-112"/>
      <use x="812.251953" xlink:href="#DejaVuSans-117"/>
      <use x="875.630859" xlink:href="#DejaVuSans-116"/>
     </g>
    </g>
    <g id="line2d_27">
     <path d="M 279 114.176562 
L 299 114.176562 
" style="fill:none;stroke:#0000ff;stroke-linecap:square;"/>
    </g>
    <g id="line2d_28"/>
    <g id="text_26">
     <!-- LR model -->
     <g transform="translate(307 117.676562)scale(0.1 -0.1)">
      <use xlink:href="#DejaVuSans-76"/>
      <use x="55.712891" xlink:href="#DejaVuSans-82"/>
      <use x="125.195312" xlink:href="#DejaVuSans-32"/>
      <use x="156.982422" xlink:href="#DejaVuSans-109"/>
      <use x="254.394531" xlink:href="#DejaVuSans-111"/>
      <use x="315.576172" xlink:href="#DejaVuSans-100"/>
      <use x="379.052734" xlink:href="#DejaVuSans-101"/>
      <use x="440.576172" xlink:href="#DejaVuSans-108"/>
     </g>
    </g>
    <g id="line2d_29">
     <path d="M 279 128.854687 
L 299 128.854687 
" style="fill:none;stroke:#008000;stroke-linecap:square;"/>
    </g>
    <g id="line2d_30"/>
    <g id="text_27">
     <!-- MLR model -->
     <g transform="translate(307 132.354687)scale(0.1 -0.1)">
      <use xlink:href="#DejaVuSans-77"/>
      <use x="86.279297" xlink:href="#DejaVuSans-76"/>
      <use x="141.992188" xlink:href="#DejaVuSans-82"/>
      <use x="211.474609" xlink:href="#DejaVuSans-32"/>
      <use x="243.261719" xlink:href="#DejaVuSans-109"/>
      <use x="340.673828" xlink:href="#DejaVuSans-111"/>
      <use x="401.855469" xlink:href="#DejaVuSans-100"/>
      <use x="465.332031" xlink:href="#DejaVuSans-101"/>
      <use x="526.855469" xlink:href="#DejaVuSans-108"/>
     </g>
    </g>
   </g>
  </g>
 </g>
 <defs>
  <clipPath id="pe455e73790">
   <rect height="554.4" width="1674" x="270" y="86.4"/>
  </clipPath>
 </defs>
</svg>
